<mxfile host="Electron" modified="2024-03-15T07:44:28.410Z" agent="Mozilla/5.0 (Windows NT 10.0; Win64; x64) AppleWebKit/537.36 (KHTML, like Gecko) draw.io/23.1.5 Chrome/120.0.6099.109 Electron/28.1.0 Safari/537.36" etag="bTOyjFTpp9sVE7dDsOV8" version="23.1.5" type="device">
  <diagram name="页-1" id="jB0x7ACsIaYaI3Wp1gNF">
    <mxGraphModel dx="649" dy="444" grid="1" gridSize="10" guides="1" tooltips="1" connect="1" arrows="1" fold="1" page="1" pageScale="1" pageWidth="570" pageHeight="340" math="1" shadow="0">
      <root>
        <mxCell id="0" />
        <mxCell id="1" parent="0" />
        <UserObject label="" tags="背景" id="8jNqRirwAT9x7CO7SYsk-1">
          <mxCell style="vsdxID=11;fillColor=#FFFFFF;gradientColor=none;shape=stencil(UzV2Ls5ILEhVNTIoLinKz04tz0wpyVA1dlE1MsrMy0gtyiwBslSNXVWNndPyi1LTi/JL81Ig/IJEkEoQKze/DGRCBUSfAUiHkUElMs8NojAnMw+nQkMDPEphkmQpNtaztERWDWQg3A7xNrIcuj+BQpAwMnYFAA==);points=[];labelBackgroundColor=#ffffff;rounded=0;html=1;whiteSpace=wrap;fontFamily=Times New Roman;" parent="1" vertex="1">
            <mxGeometry x="28" y="124" width="90" height="6" as="geometry" />
          </mxCell>
        </UserObject>
        <UserObject label="&lt;div style=&quot;font-size: 1px&quot;&gt;&lt;font style=&quot;font-size: 14.11px; color: rgb(0, 0, 0); direction: ltr; letter-spacing: 0px; line-height: 120%; opacity: 1;&quot;&gt;FFT&lt;br&gt;&lt;/font&gt;&lt;/div&gt;" tags="背景" id="8jNqRirwAT9x7CO7SYsk-2">
          <mxCell style="verticalAlign=middle;align=center;overflow=width;vsdxID=12;fillColor=#FFFFFF;gradientColor=none;shape=stencil(nZBLDoAgDERP0z3SIyjew0SURgSD+Lu9kMZoXLhwN9O+tukAlrNpJg1SzDH4QW/URgNYgZTkjA4UkwJUgGXng+6DX1zLfmoymdXo17xh5zmRJ6Q42BWCfc2oJfdAr+Yv+AP9Cb7OJ3H/2JG1HNGz/84klThPVCc=);points=[[1,0.5,0],[0.5,0,0],[0.5,0.5,0],[0.5,0.5,0]];labelBackgroundColor=none;rounded=0;html=1;whiteSpace=wrap;fontFamily=Times New Roman;" parent="1" vertex="1">
            <mxGeometry x="53" y="148" width="37" height="16" as="geometry" />
          </mxCell>
        </UserObject>
        <UserObject label="" tags="背景" id="8jNqRirwAT9x7CO7SYsk-3">
          <mxCell style="vsdxID=13;edgeStyle=none;startArrow=none;endArrow=classic;startSize=5;endSize=5;spacingTop=0;spacingBottom=0;spacingLeft=0;spacingRight=0;verticalAlign=middle;html=1;labelBackgroundColor=#ffffff;rounded=0;fontFamily=Times New Roman;" parent="1" edge="1">
            <mxGeometry relative="1" as="geometry">
              <Array as="points" />
              <mxPoint x="36" y="104" as="sourcePoint" />
              <mxPoint x="36" y="125" as="targetPoint" />
            </mxGeometry>
          </mxCell>
        </UserObject>
        <UserObject label="" tags="背景" id="8jNqRirwAT9x7CO7SYsk-4">
          <mxCell style="vsdxID=15;edgeStyle=none;startArrow=none;endArrow=classic;startSize=5;endSize=5;spacingTop=0;spacingBottom=0;spacingLeft=0;spacingRight=0;verticalAlign=middle;html=1;labelBackgroundColor=#ffffff;rounded=0;fontFamily=Times New Roman;" parent="1" edge="1">
            <mxGeometry relative="1" as="geometry">
              <Array as="points" />
              <mxPoint x="54" y="104" as="sourcePoint" />
              <mxPoint x="54" y="125" as="targetPoint" />
            </mxGeometry>
          </mxCell>
        </UserObject>
        <UserObject label="" tags="背景" id="8jNqRirwAT9x7CO7SYsk-5">
          <mxCell style="vsdxID=16;edgeStyle=none;startArrow=none;endArrow=classic;startSize=5;endSize=5;spacingTop=0;spacingBottom=0;spacingLeft=0;spacingRight=0;verticalAlign=middle;html=1;labelBackgroundColor=#ffffff;rounded=0;fontFamily=Times New Roman;" parent="1" edge="1">
            <mxGeometry relative="1" as="geometry">
              <Array as="points" />
              <mxPoint x="70" y="104" as="sourcePoint" />
              <mxPoint x="70" y="125" as="targetPoint" />
            </mxGeometry>
          </mxCell>
        </UserObject>
        <UserObject label="" tags="背景" id="8jNqRirwAT9x7CO7SYsk-6">
          <mxCell style="vsdxID=17;edgeStyle=none;startArrow=none;endArrow=classic;startSize=5;endSize=5;spacingTop=0;spacingBottom=0;spacingLeft=0;spacingRight=0;verticalAlign=middle;html=1;labelBackgroundColor=#ffffff;rounded=0;fontFamily=Times New Roman;" parent="1" edge="1">
            <mxGeometry relative="1" as="geometry">
              <Array as="points" />
              <mxPoint x="105" y="104" as="sourcePoint" />
              <mxPoint x="105" y="125" as="targetPoint" />
            </mxGeometry>
          </mxCell>
        </UserObject>
        <UserObject label="&lt;div style=&quot;font-size: 1px&quot;&gt;&lt;font style=&quot;font-size: 16.93px; color: rgb(0, 0, 0); direction: ltr; letter-spacing: 0px; line-height: 120%; opacity: 1;&quot;&gt;...&lt;br&gt;&lt;/font&gt;&lt;/div&gt;" tags="背景" id="8jNqRirwAT9x7CO7SYsk-7">
          <mxCell style="verticalAlign=middle;align=center;overflow=width;vsdxID=18;fillColor=none;gradientColor=none;shape=stencil(nZBLDoAgDERP0z3SIyjew0SURgSD+Lu9kMZoXLhwN9O+tukAlrNpJg1SzDH4QW/URgNYgZTkjA4UkwJUgGXng+6DX1zLfmoymdXo17xh5zmRJ6Q42BWCfc2oJfdAr+Yv+AP9Cb7OJ3H/2JG1HNGz/84klThPVCc=);strokeColor=none;points=[];labelBackgroundColor=none;rounded=0;html=1;whiteSpace=wrap;fontFamily=Times New Roman;" parent="1" vertex="1">
            <mxGeometry x="20" y="99" width="140" height="18" as="geometry" />
          </mxCell>
        </UserObject>
        <UserObject label="" tags="背景" id="8jNqRirwAT9x7CO7SYsk-8">
          <mxCell style="vsdxID=20;fillColor=#FFFFFF;gradientColor=none;shape=stencil(nZBLDoAgDERP0z3SIyjew0SURgSD+Lu9kMZoXLhwN9O+tukAlrNpJg1SzDH4QW/URgNYgZTkjA4UkwJUgGXng+6DX1zLfmoymdXo17xh5zmRJ6Q42BWCfc2oJfdAr+Yv+AP9Cb7OJ3H/2JG1HNGz/84klThPVCc=);points=[[1,0.5,0],[0.5,0,0],[0.5,0.5,0],[0.5,0.5,0]];labelBackgroundColor=none;rounded=0;html=1;whiteSpace=wrap;fontFamily=Times New Roman;" parent="1" vertex="1">
            <mxGeometry x="62" y="180" width="20" height="18" as="geometry" />
          </mxCell>
        </UserObject>
        <UserObject label="" tags="背景" id="8jNqRirwAT9x7CO7SYsk-9">
          <mxCell style="vsdxID=38;fillColor=#000000;gradientColor=none;shape=stencil(nZBLDoAgDERP0z3SIyjew0SURgSD+Lu9kMZoXLhwN9O+tukAlrNpJg1SzDH4QW/URgNYgZTkjA4UkwJUgGXng+6DX1zLfmoymdXo17xh5zmRJ6Q42BWCfc2oJfdAr+Yv+AP9Cb7OJ3H/2JG1HNGz/84klThPVCc=);points=[[1,0.5,0],[0.5,0,0],[0.5,0.5,0],[0.5,0.5,0]];labelBackgroundColor=none;rounded=0;html=1;whiteSpace=wrap;fontFamily=Times New Roman;" parent="1" vertex="1">
            <mxGeometry x="62" y="198" width="20" height="18" as="geometry" />
          </mxCell>
        </UserObject>
        <UserObject label="" tags="背景" id="8jNqRirwAT9x7CO7SYsk-10">
          <mxCell style="vsdxID=39;fillColor=#FFFFFF;gradientColor=none;shape=stencil(nZBLDoAgDERP0z3SIyjew0SURgSD+Lu9kMZoXLhwN9O+tukAlrNpJg1SzDH4QW/URgNYgZTkjA4UkwJUgGXng+6DX1zLfmoymdXo17xh5zmRJ6Q42BWCfc2oJfdAr+Yv+AP9Cb7OJ3H/2JG1HNGz/84klThPVCc=);points=[[1,0.5,0],[0.5,0,0],[0.5,0.5,0],[0.5,0.5,0]];labelBackgroundColor=none;rounded=0;html=1;whiteSpace=wrap;fontFamily=Times New Roman;" parent="1" vertex="1">
            <mxGeometry x="62" y="217" width="20" height="18" as="geometry" />
          </mxCell>
        </UserObject>
        <UserObject label="" tags="背景" id="8jNqRirwAT9x7CO7SYsk-11">
          <mxCell style="vsdxID=40;fillColor=#FFFFFF;gradientColor=none;shape=stencil(nZBLDoAgDERP0z3SIyjew0SURgSD+Lu9kMZoXLhwN9O+tukAlrNpJg1SzDH4QW/URgNYgZTkjA4UkwJUgGXng+6DX1zLfmoymdXo17xh5zmRJ6Q42BWCfc2oJfdAr+Yv+AP9Cb7OJ3H/2JG1HNGz/84klThPVCc=);points=[[1,0.5,0],[0.5,0,0],[0.5,0.5,0],[0.5,0.5,0]];labelBackgroundColor=none;rounded=0;html=1;whiteSpace=wrap;fontFamily=Times New Roman;" parent="1" vertex="1">
            <mxGeometry x="62" y="235" width="20" height="37" as="geometry" />
          </mxCell>
        </UserObject>
        <UserObject label="" tags="背景" id="8jNqRirwAT9x7CO7SYsk-12">
          <mxCell style="vsdxID=42;fillColor=#FFFFFF;gradientColor=none;shape=stencil(nZBLDoAgDERP0z3SIyjew0SURgSD+Lu9kMZoXLhwN9O+tukAlrNpJg1SzDH4QW/URgNYgZTkjA4UkwJUgGXng+6DX1zLfmoymdXo17xh5zmRJ6Q42BWCfc2oJfdAr+Yv+AP9Cb7OJ3H/2JG1HNGz/84klThPVCc=);points=[[1,0.5,0],[0.5,0,0],[0.5,0.5,0],[0.5,0.5,0]];labelBackgroundColor=none;rounded=0;html=1;whiteSpace=wrap;fontFamily=Times New Roman;" parent="1" vertex="1">
            <mxGeometry x="62" y="272" width="20" height="18" as="geometry" />
          </mxCell>
        </UserObject>
        <UserObject label="" tags="背景" id="8jNqRirwAT9x7CO7SYsk-13">
          <mxCell style="vsdxID=44;fillColor=#FFFFFF;gradientColor=none;shape=stencil(UzV2Ls5ILEhVNTIoLinKz04tz0wpyVA1dlE1MsrMy0gtyiwBslSNXVWNndPyi1LTi/JL81Ig/IJEkEoQKze/DGRCBUSfAUiHkUElMs8NojAnMw+nQkMDPEphkmQpNtaztERWDWQg3A7xNrIcuj+BQpAwMnYFAA==);points=[];labelBackgroundColor=#ffffff;rounded=0;html=1;whiteSpace=wrap;fontFamily=Times New Roman;" parent="1" vertex="1">
            <mxGeometry x="140" y="126" width="90" height="6" as="geometry" />
          </mxCell>
        </UserObject>
        <UserObject label="&lt;div style=&quot;font-size: 1px&quot;&gt;&lt;font style=&quot;font-size: 14.11px; color: rgb(0, 0, 0); direction: ltr; letter-spacing: 0px; line-height: 120%; opacity: 1;&quot;&gt;FFT&lt;br&gt;&lt;/font&gt;&lt;/div&gt;" tags="背景" id="8jNqRirwAT9x7CO7SYsk-14">
          <mxCell style="verticalAlign=middle;align=center;overflow=width;vsdxID=45;fillColor=#FFFFFF;gradientColor=none;shape=stencil(nZBLDoAgDERP0z3SIyjew0SURgSD+Lu9kMZoXLhwN9O+tukAlrNpJg1SzDH4QW/URgNYgZTkjA4UkwJUgGXng+6DX1zLfmoymdXo17xh5zmRJ6Q42BWCfc2oJfdAr+Yv+AP9Cb7OJ3H/2JG1HNGz/84klThPVCc=);points=[[1,0.5,0],[0.5,0,0],[0.5,0.5,0],[0.5,0.5,0]];labelBackgroundColor=none;rounded=0;html=1;whiteSpace=wrap;fontFamily=Times New Roman;" parent="1" vertex="1">
            <mxGeometry x="165" y="149" width="37" height="16" as="geometry" />
          </mxCell>
        </UserObject>
        <UserObject label="" tags="背景" id="8jNqRirwAT9x7CO7SYsk-15">
          <mxCell style="vsdxID=46;edgeStyle=none;startArrow=none;endArrow=classic;startSize=5;endSize=5;spacingTop=0;spacingBottom=0;spacingLeft=0;spacingRight=0;verticalAlign=middle;html=1;labelBackgroundColor=#ffffff;rounded=0;fontFamily=Times New Roman;" parent="1" edge="1">
            <mxGeometry relative="1" as="geometry">
              <Array as="points" />
              <mxPoint x="148" y="105" as="sourcePoint" />
              <mxPoint x="148" y="127" as="targetPoint" />
            </mxGeometry>
          </mxCell>
        </UserObject>
        <UserObject label="" tags="背景" id="8jNqRirwAT9x7CO7SYsk-16">
          <mxCell style="vsdxID=47;edgeStyle=none;startArrow=none;endArrow=classic;startSize=5;endSize=5;spacingTop=0;spacingBottom=0;spacingLeft=0;spacingRight=0;verticalAlign=middle;html=1;labelBackgroundColor=#ffffff;rounded=0;fontFamily=Times New Roman;" parent="1" edge="1">
            <mxGeometry relative="1" as="geometry">
              <Array as="points" />
              <mxPoint x="166" y="105" as="sourcePoint" />
              <mxPoint x="166" y="127" as="targetPoint" />
            </mxGeometry>
          </mxCell>
        </UserObject>
        <UserObject label="" tags="背景" id="8jNqRirwAT9x7CO7SYsk-17">
          <mxCell style="vsdxID=48;edgeStyle=none;startArrow=none;endArrow=classic;startSize=5;endSize=5;spacingTop=0;spacingBottom=0;spacingLeft=0;spacingRight=0;verticalAlign=middle;html=1;labelBackgroundColor=#ffffff;rounded=0;fontFamily=Times New Roman;" parent="1" edge="1">
            <mxGeometry relative="1" as="geometry">
              <Array as="points" />
              <mxPoint x="182" y="105" as="sourcePoint" />
              <mxPoint x="182" y="127" as="targetPoint" />
            </mxGeometry>
          </mxCell>
        </UserObject>
        <UserObject label="" tags="背景" id="8jNqRirwAT9x7CO7SYsk-18">
          <mxCell style="vsdxID=49;edgeStyle=none;startArrow=none;endArrow=classic;startSize=5;endSize=5;spacingTop=0;spacingBottom=0;spacingLeft=0;spacingRight=0;verticalAlign=middle;html=1;labelBackgroundColor=#ffffff;rounded=0;fontFamily=Times New Roman;" parent="1" edge="1">
            <mxGeometry relative="1" as="geometry">
              <Array as="points" />
              <mxPoint x="217" y="105" as="sourcePoint" />
              <mxPoint x="217" y="127" as="targetPoint" />
            </mxGeometry>
          </mxCell>
        </UserObject>
        <UserObject label="&lt;div style=&quot;font-size: 1px&quot;&gt;&lt;font style=&quot;font-size: 16.93px; color: rgb(0, 0, 0); direction: ltr; letter-spacing: 0px; line-height: 120%; opacity: 1;&quot;&gt;...&lt;br&gt;&lt;/font&gt;&lt;/div&gt;" tags="背景" id="8jNqRirwAT9x7CO7SYsk-19">
          <mxCell style="verticalAlign=middle;align=center;overflow=width;vsdxID=50;fillColor=none;gradientColor=none;shape=stencil(nZBLDoAgDERP0z3SIyjew0SURgSD+Lu9kMZoXLhwN9O+tukAlrNpJg1SzDH4QW/URgNYgZTkjA4UkwJUgGXng+6DX1zLfmoymdXo17xh5zmRJ6Q42BWCfc2oJfdAr+Yv+AP9Cb7OJ3H/2JG1HNGz/84klThPVCc=);strokeColor=none;points=[];labelBackgroundColor=none;rounded=0;html=1;whiteSpace=wrap;fontFamily=Times New Roman;" parent="1" vertex="1">
            <mxGeometry x="132" y="100" width="140" height="18" as="geometry" />
          </mxCell>
        </UserObject>
        <UserObject label="" tags="背景" id="8jNqRirwAT9x7CO7SYsk-20">
          <mxCell style="vsdxID=52;fillColor=#FFFFFF;gradientColor=none;shape=stencil(nZBLDoAgDERP0z3SIyjew0SURgSD+Lu9kMZoXLhwN9O+tukAlrNpJg1SzDH4QW/URgNYgZTkjA4UkwJUgGXng+6DX1zLfmoymdXo17xh5zmRJ6Q42BWCfc2oJfdAr+Yv+AP9Cb7OJ3H/2JG1HNGz/84klThPVCc=);points=[[1,0.5,0],[0.5,0,0],[0.5,0.5,0],[0.5,0.5,0]];labelBackgroundColor=none;rounded=0;html=1;whiteSpace=wrap;fontFamily=Times New Roman;" parent="1" vertex="1">
            <mxGeometry x="174" y="182" width="20" height="18" as="geometry" />
          </mxCell>
        </UserObject>
        <UserObject label="" tags="背景" id="8jNqRirwAT9x7CO7SYsk-21">
          <mxCell style="vsdxID=53;fillColor=#000000;gradientColor=none;shape=stencil(nZBLDoAgDERP0z3SIyjew0SURgSD+Lu9kMZoXLhwN9O+tukAlrNpJg1SzDH4QW/URgNYgZTkjA4UkwJUgGXng+6DX1zLfmoymdXo17xh5zmRJ6Q42BWCfc2oJfdAr+Yv+AP9Cb7OJ3H/2JG1HNGz/84klThPVCc=);points=[[1,0.5,0],[0.5,0,0],[0.5,0.5,0],[0.5,0.5,0]];labelBackgroundColor=none;rounded=0;html=1;whiteSpace=wrap;fontFamily=Times New Roman;" parent="1" vertex="1">
            <mxGeometry x="174" y="200" width="20" height="18" as="geometry" />
          </mxCell>
        </UserObject>
        <UserObject label="" tags="背景" id="8jNqRirwAT9x7CO7SYsk-22">
          <mxCell style="vsdxID=54;fillColor=#FFFFFF;gradientColor=none;shape=stencil(nZBLDoAgDERP0z3SIyjew0SURgSD+Lu9kMZoXLhwN9O+tukAlrNpJg1SzDH4QW/URgNYgZTkjA4UkwJUgGXng+6DX1zLfmoymdXo17xh5zmRJ6Q42BWCfc2oJfdAr+Yv+AP9Cb7OJ3H/2JG1HNGz/84klThPVCc=);points=[[1,0.5,0],[0.5,0,0],[0.5,0.5,0],[0.5,0.5,0]];labelBackgroundColor=none;rounded=0;html=1;whiteSpace=wrap;fontFamily=Times New Roman;" parent="1" vertex="1">
            <mxGeometry x="174" y="218" width="20" height="18" as="geometry" />
          </mxCell>
        </UserObject>
        <UserObject label="" tags="背景" id="8jNqRirwAT9x7CO7SYsk-23">
          <mxCell style="vsdxID=55;fillColor=#FFFFFF;gradientColor=none;shape=stencil(nZBLDoAgDERP0z3SIyjew0SURgSD+Lu9kMZoXLhwN9O+tukAlrNpJg1SzDH4QW/URgNYgZTkjA4UkwJUgGXng+6DX1zLfmoymdXo17xh5zmRJ6Q42BWCfc2oJfdAr+Yv+AP9Cb7OJ3H/2JG1HNGz/84klThPVCc=);points=[[1,0.5,0],[0.5,0,0],[0.5,0.5,0],[0.5,0.5,0]];labelBackgroundColor=none;rounded=0;html=1;whiteSpace=wrap;fontFamily=Times New Roman;" parent="1" vertex="1">
            <mxGeometry x="174" y="236" width="20" height="37" as="geometry" />
          </mxCell>
        </UserObject>
        <UserObject label="" tags="背景" id="8jNqRirwAT9x7CO7SYsk-24">
          <mxCell style="vsdxID=57;fillColor=#FFFFFF;gradientColor=none;shape=stencil(nZBLDoAgDERP0z3SIyjew0SURgSD+Lu9kMZoXLhwN9O+tukAlrNpJg1SzDH4QW/URgNYgZTkjA4UkwJUgGXng+6DX1zLfmoymdXo17xh5zmRJ6Q42BWCfc2oJfdAr+Yv+AP9Cb7OJ3H/2JG1HNGz/84klThPVCc=);points=[[1,0.5,0],[0.5,0,0],[0.5,0.5,0],[0.5,0.5,0]];labelBackgroundColor=none;rounded=0;html=1;whiteSpace=wrap;fontFamily=Times New Roman;" parent="1" vertex="1">
            <mxGeometry x="174" y="273" width="20" height="18" as="geometry" />
          </mxCell>
        </UserObject>
        <UserObject label="" tags="背景" id="8jNqRirwAT9x7CO7SYsk-25">
          <mxCell style="vsdxID=59;fillColor=#FFFFFF;gradientColor=none;shape=stencil(UzV2Ls5ILEhVNTIoLinKz04tz0wpyVA1dlE1MsrMy0gtyiwBslSNXVWNndPyi1LTi/JL81Ig/IJEkEoQKze/DGRCBUSfAUiHkUElMs8NojAnMw+nQkMDPEphkmQpNtaztERWDWQg3A7xNrIcuj+BQpAwMnYFAA==);points=[];labelBackgroundColor=#ffffff;rounded=0;html=1;whiteSpace=wrap;fontFamily=Times New Roman;" parent="1" vertex="1">
            <mxGeometry x="256" y="126" width="90" height="6" as="geometry" />
          </mxCell>
        </UserObject>
        <UserObject label="&lt;div style=&quot;font-size: 1px&quot;&gt;&lt;font style=&quot;font-size: 12.7px; color: rgb(0, 0, 0); direction: ltr; letter-spacing: 0px; line-height: 120%; opacity: 1;&quot;&gt;FFT&lt;br&gt;&lt;/font&gt;&lt;/div&gt;" tags="背景" id="8jNqRirwAT9x7CO7SYsk-26">
          <mxCell style="verticalAlign=middle;align=center;overflow=width;vsdxID=60;fillColor=#FFFFFF;gradientColor=none;shape=stencil(nZBLDoAgDERP0z3SIyjew0SURgSD+Lu9kMZoXLhwN9O+tukAlrNpJg1SzDH4QW/URgNYgZTkjA4UkwJUgGXng+6DX1zLfmoymdXo17xh5zmRJ6Q42BWCfc2oJfdAr+Yv+AP9Cb7OJ3H/2JG1HNGz/84klThPVCc=);points=[[1,0.5,0],[0.5,0,0],[0.5,0.5,0],[0.5,0.5,0]];labelBackgroundColor=none;rounded=0;html=1;whiteSpace=wrap;fontFamily=Times New Roman;" parent="1" vertex="1">
            <mxGeometry x="281" y="149" width="37" height="16" as="geometry" />
          </mxCell>
        </UserObject>
        <UserObject label="" tags="背景" id="8jNqRirwAT9x7CO7SYsk-27">
          <mxCell style="vsdxID=61;edgeStyle=none;startArrow=none;endArrow=classic;startSize=5;endSize=5;spacingTop=0;spacingBottom=0;spacingLeft=0;spacingRight=0;verticalAlign=middle;html=1;labelBackgroundColor=#ffffff;rounded=0;fontFamily=Times New Roman;" parent="1" edge="1">
            <mxGeometry relative="1" as="geometry">
              <Array as="points" />
              <mxPoint x="264" y="105" as="sourcePoint" />
              <mxPoint x="264" y="127" as="targetPoint" />
            </mxGeometry>
          </mxCell>
        </UserObject>
        <UserObject label="" tags="背景" id="8jNqRirwAT9x7CO7SYsk-28">
          <mxCell style="vsdxID=62;edgeStyle=none;startArrow=none;endArrow=classic;startSize=5;endSize=5;spacingTop=0;spacingBottom=0;spacingLeft=0;spacingRight=0;verticalAlign=middle;html=1;labelBackgroundColor=#ffffff;rounded=0;fontFamily=Times New Roman;" parent="1" edge="1">
            <mxGeometry relative="1" as="geometry">
              <Array as="points" />
              <mxPoint x="282" y="105" as="sourcePoint" />
              <mxPoint x="282" y="127" as="targetPoint" />
            </mxGeometry>
          </mxCell>
        </UserObject>
        <UserObject label="" tags="背景" id="8jNqRirwAT9x7CO7SYsk-29">
          <mxCell style="vsdxID=63;edgeStyle=none;startArrow=none;endArrow=classic;startSize=5;endSize=5;spacingTop=0;spacingBottom=0;spacingLeft=0;spacingRight=0;verticalAlign=middle;html=1;labelBackgroundColor=#ffffff;rounded=0;fontFamily=Times New Roman;" parent="1" edge="1">
            <mxGeometry relative="1" as="geometry">
              <Array as="points" />
              <mxPoint x="298" y="105" as="sourcePoint" />
              <mxPoint x="298" y="127" as="targetPoint" />
            </mxGeometry>
          </mxCell>
        </UserObject>
        <UserObject label="" tags="背景" id="8jNqRirwAT9x7CO7SYsk-30">
          <mxCell style="vsdxID=64;edgeStyle=none;startArrow=none;endArrow=classic;startSize=5;endSize=5;spacingTop=0;spacingBottom=0;spacingLeft=0;spacingRight=0;verticalAlign=middle;html=1;labelBackgroundColor=#ffffff;rounded=0;fontFamily=Times New Roman;" parent="1" edge="1">
            <mxGeometry relative="1" as="geometry">
              <Array as="points" />
              <mxPoint x="333" y="105" as="sourcePoint" />
              <mxPoint x="333" y="127" as="targetPoint" />
            </mxGeometry>
          </mxCell>
        </UserObject>
        <UserObject label="&lt;div style=&quot;font-size: 1px&quot;&gt;&lt;font style=&quot;font-size: 16.93px; color: rgb(0, 0, 0); direction: ltr; letter-spacing: 0px; line-height: 120%; opacity: 1;&quot;&gt;...&lt;br&gt;&lt;/font&gt;&lt;/div&gt;" tags="背景" id="8jNqRirwAT9x7CO7SYsk-31">
          <mxCell style="verticalAlign=middle;align=center;overflow=width;vsdxID=65;fillColor=none;gradientColor=none;shape=stencil(nZBLDoAgDERP0z3SIyjew0SURgSD+Lu9kMZoXLhwN9O+tukAlrNpJg1SzDH4QW/URgNYgZTkjA4UkwJUgGXng+6DX1zLfmoymdXo17xh5zmRJ6Q42BWCfc2oJfdAr+Yv+AP9Cb7OJ3H/2JG1HNGz/84klThPVCc=);strokeColor=none;points=[];labelBackgroundColor=none;rounded=0;html=1;whiteSpace=wrap;fontFamily=Times New Roman;" parent="1" vertex="1">
            <mxGeometry x="248" y="100" width="140" height="18" as="geometry" />
          </mxCell>
        </UserObject>
        <UserObject label="" tags="背景" id="8jNqRirwAT9x7CO7SYsk-32">
          <mxCell style="vsdxID=67;fillColor=#FFFFFF;gradientColor=none;shape=stencil(nZBLDoAgDERP0z3SIyjew0SURgSD+Lu9kMZoXLhwN9O+tukAlrNpJg1SzDH4QW/URgNYgZTkjA4UkwJUgGXng+6DX1zLfmoymdXo17xh5zmRJ6Q42BWCfc2oJfdAr+Yv+AP9Cb7OJ3H/2JG1HNGz/84klThPVCc=);points=[[1,0.5,0],[0.5,0,0],[0.5,0.5,0],[0.5,0.5,0]];labelBackgroundColor=none;rounded=0;html=1;whiteSpace=wrap;fontFamily=Times New Roman;" parent="1" vertex="1">
            <mxGeometry x="290" y="182" width="20" height="18" as="geometry" />
          </mxCell>
        </UserObject>
        <UserObject label="" tags="背景" id="8jNqRirwAT9x7CO7SYsk-33">
          <mxCell style="vsdxID=68;fillColor=#000000;gradientColor=none;shape=stencil(nZBLDoAgDERP0z3SIyjew0SURgSD+Lu9kMZoXLhwN9O+tukAlrNpJg1SzDH4QW/URgNYgZTkjA4UkwJUgGXng+6DX1zLfmoymdXo17xh5zmRJ6Q42BWCfc2oJfdAr+Yv+AP9Cb7OJ3H/2JG1HNGz/84klThPVCc=);points=[[1,0.5,0],[0.5,0,0],[0.5,0.5,0],[0.5,0.5,0]];labelBackgroundColor=none;rounded=0;html=1;whiteSpace=wrap;fontFamily=Times New Roman;" parent="1" vertex="1">
            <mxGeometry x="290" y="200" width="20" height="18" as="geometry" />
          </mxCell>
        </UserObject>
        <UserObject label="" tags="背景" id="8jNqRirwAT9x7CO7SYsk-34">
          <mxCell style="vsdxID=69;fillColor=#FFFFFF;gradientColor=none;shape=stencil(nZBLDoAgDERP0z3SIyjew0SURgSD+Lu9kMZoXLhwN9O+tukAlrNpJg1SzDH4QW/URgNYgZTkjA4UkwJUgGXng+6DX1zLfmoymdXo17xh5zmRJ6Q42BWCfc2oJfdAr+Yv+AP9Cb7OJ3H/2JG1HNGz/84klThPVCc=);points=[[1,0.5,0],[0.5,0,0],[0.5,0.5,0],[0.5,0.5,0]];labelBackgroundColor=none;rounded=0;html=1;whiteSpace=wrap;fontFamily=Times New Roman;" parent="1" vertex="1">
            <mxGeometry x="290" y="218" width="20" height="18" as="geometry" />
          </mxCell>
        </UserObject>
        <UserObject label="" tags="背景" id="8jNqRirwAT9x7CO7SYsk-35">
          <mxCell style="vsdxID=70;fillColor=#FFFFFF;gradientColor=none;shape=stencil(nZBLDoAgDERP0z3SIyjew0SURgSD+Lu9kMZoXLhwN9O+tukAlrNpJg1SzDH4QW/URgNYgZTkjA4UkwJUgGXng+6DX1zLfmoymdXo17xh5zmRJ6Q42BWCfc2oJfdAr+Yv+AP9Cb7OJ3H/2JG1HNGz/84klThPVCc=);points=[[1,0.5,0],[0.5,0,0],[0.5,0.5,0],[0.5,0.5,0]];labelBackgroundColor=none;rounded=0;html=1;whiteSpace=wrap;fontFamily=Times New Roman;" parent="1" vertex="1">
            <mxGeometry x="290" y="236" width="20" height="37" as="geometry" />
          </mxCell>
        </UserObject>
        <UserObject label="" tags="背景" id="8jNqRirwAT9x7CO7SYsk-36">
          <mxCell style="vsdxID=72;fillColor=#FFFFFF;gradientColor=none;shape=stencil(nZBLDoAgDERP0z3SIyjew0SURgSD+Lu9kMZoXLhwN9O+tukAlrNpJg1SzDH4QW/URgNYgZTkjA4UkwJUgGXng+6DX1zLfmoymdXo17xh5zmRJ6Q42BWCfc2oJfdAr+Yv+AP9Cb7OJ3H/2JG1HNGz/84klThPVCc=);points=[[1,0.5,0],[0.5,0,0],[0.5,0.5,0],[0.5,0.5,0]];labelBackgroundColor=none;rounded=0;html=1;whiteSpace=wrap;fontFamily=Times New Roman;" parent="1" vertex="1">
            <mxGeometry x="290" y="273" width="20" height="18" as="geometry" />
          </mxCell>
        </UserObject>
        <UserObject label="" tags="背景" id="8jNqRirwAT9x7CO7SYsk-37">
          <mxCell style="vsdxID=81;fillColor=none;gradientColor=none;points=[];labelBackgroundColor=none;rounded=0;strokeColor=none;html=1;whiteSpace=wrap;fontFamily=Times New Roman;" parent="1" vertex="1">
            <mxGeometry x="386" y="181" width="20" height="110" as="geometry" />
          </mxCell>
        </UserObject>
        <mxCell id="8jNqRirwAT9x7CO7SYsk-38" style="vsdxID=82;fillColor=#FFFFFF;gradientColor=none;shape=stencil(nZBLDoAgDERP0z3SIyjew0SURgSD+Lu9kMZoXLhwN9O+tukAlrNpJg1SzDH4QW/URgNYgZTkjA4UkwJUgGXng+6DX1zLfmoymdXo17xh5zmRJ6Q42BWCfc2oJfdAr+Yv+AP9Cb7OJ3H/2JG1HNGz/84klThPVCc=);points=[[1,0.5,0],[0.5,0,0],[0.5,0.5,0],[0.5,0.5,0]];labelBackgroundColor=none;rounded=0;html=1;whiteSpace=wrap;fontFamily=Times New Roman;" parent="8jNqRirwAT9x7CO7SYsk-37" vertex="1">
          <mxGeometry width="20" height="18" as="geometry" />
        </mxCell>
        <mxCell id="8jNqRirwAT9x7CO7SYsk-39" style="vsdxID=83;fillColor=#FFFFFF;gradientColor=none;shape=stencil(nZBLDoAgDERP0z3SIyjew0SURgSD+Lu9kMZoXLhwN9O+tukAlrNpJg1SzDH4QW/URgNYgZTkjA4UkwJUgGXng+6DX1zLfmoymdXo17xh5zmRJ6Q42BWCfc2oJfdAr+Yv+AP9Cb7OJ3H/2JG1HNGz/84klThPVCc=);points=[[1,0.5,0],[0.5,0,0],[0.5,0.5,0],[0.5,0.5,0]];labelBackgroundColor=none;rounded=0;html=1;whiteSpace=wrap;fontFamily=Times New Roman;" parent="8jNqRirwAT9x7CO7SYsk-37" vertex="1">
          <mxGeometry y="18" width="20" height="18" as="geometry" />
        </mxCell>
        <mxCell id="8jNqRirwAT9x7CO7SYsk-40" style="vsdxID=84;fillColor=#FFFFFF;gradientColor=none;shape=stencil(nZBLDoAgDERP0z3SIyjew0SURgSD+Lu9kMZoXLhwN9O+tukAlrNpJg1SzDH4QW/URgNYgZTkjA4UkwJUgGXng+6DX1zLfmoymdXo17xh5zmRJ6Q42BWCfc2oJfdAr+Yv+AP9Cb7OJ3H/2JG1HNGz/84klThPVCc=);points=[[1,0.5,0],[0.5,0,0],[0.5,0.5,0],[0.5,0.5,0]];labelBackgroundColor=none;rounded=0;html=1;whiteSpace=wrap;fontFamily=Times New Roman;" parent="8jNqRirwAT9x7CO7SYsk-37" vertex="1">
          <mxGeometry y="36" width="20" height="18" as="geometry" />
        </mxCell>
        <mxCell id="8jNqRirwAT9x7CO7SYsk-41" style="vsdxID=85;fillColor=#FFFFFF;gradientColor=none;shape=stencil(nZBLDoAgDERP0z3SIyjew0SURgSD+Lu9kMZoXLhwN9O+tukAlrNpJg1SzDH4QW/URgNYgZTkjA4UkwJUgGXng+6DX1zLfmoymdXo17xh5zmRJ6Q42BWCfc2oJfdAr+Yv+AP9Cb7OJ3H/2JG1HNGz/84klThPVCc=);points=[[1,0.5,0],[0.5,0,0],[0.5,0.5,0],[0.5,0.5,0]];labelBackgroundColor=none;rounded=0;html=1;whiteSpace=wrap;fontFamily=Times New Roman;" parent="8jNqRirwAT9x7CO7SYsk-37" vertex="1">
          <mxGeometry y="54" width="20" height="18" as="geometry" />
        </mxCell>
        <mxCell id="8jNqRirwAT9x7CO7SYsk-42" style="vsdxID=86;fillColor=#FFFFFF;gradientColor=none;shape=stencil(nZBLDoAgDERP0z3SIyjew0SURgSD+Lu9kMZoXLhwN9O+tukAlrNpJg1SzDH4QW/URgNYgZTkjA4UkwJUgGXng+6DX1zLfmoymdXo17xh5zmRJ6Q42BWCfc2oJfdAr+Yv+AP9Cb7OJ3H/2JG1HNGz/84klThPVCc=);points=[[1,0.5,0],[0.5,0,0],[0.5,0.5,0],[0.5,0.5,0]];labelBackgroundColor=none;rounded=0;html=1;whiteSpace=wrap;fontFamily=Times New Roman;" parent="8jNqRirwAT9x7CO7SYsk-37" vertex="1">
          <mxGeometry y="72" width="20" height="18" as="geometry" />
        </mxCell>
        <mxCell id="8jNqRirwAT9x7CO7SYsk-43" style="vsdxID=87;fillColor=#FFFFFF;gradientColor=none;shape=stencil(nZBLDoAgDERP0z3SIyjew0SURgSD+Lu9kMZoXLhwN9O+tukAlrNpJg1SzDH4QW/URgNYgZTkjA4UkwJUgGXng+6DX1zLfmoymdXo17xh5zmRJ6Q42BWCfc2oJfdAr+Yv+AP9Cb7OJ3H/2JG1HNGz/84klThPVCc=);points=[[1,0.5,0],[0.5,0,0],[0.5,0.5,0],[0.5,0.5,0]];labelBackgroundColor=none;rounded=0;html=1;whiteSpace=wrap;fontFamily=Times New Roman;" parent="8jNqRirwAT9x7CO7SYsk-37" vertex="1">
          <mxGeometry y="90" width="20" height="18" as="geometry" />
        </mxCell>
        <UserObject label="" tags="背景" id="8jNqRirwAT9x7CO7SYsk-44">
          <mxCell style="vsdxID=88;fillColor=none;gradientColor=none;points=[];labelBackgroundColor=none;rounded=0;strokeColor=none;html=1;whiteSpace=wrap;fontFamily=Times New Roman;" parent="1" vertex="1">
            <mxGeometry x="406" y="181" width="20" height="110" as="geometry" />
          </mxCell>
        </UserObject>
        <mxCell id="8jNqRirwAT9x7CO7SYsk-45" style="vsdxID=89;fillColor=#FFFFFF;gradientColor=none;shape=stencil(nZBLDoAgDERP0z3SIyjew0SURgSD+Lu9kMZoXLhwN9O+tukAlrNpJg1SzDH4QW/URgNYgZTkjA4UkwJUgGXng+6DX1zLfmoymdXo17xh5zmRJ6Q42BWCfc2oJfdAr+Yv+AP9Cb7OJ3H/2JG1HNGz/84klThPVCc=);points=[[1,0.5,0],[0.5,0,0],[0.5,0.5,0],[0.5,0.5,0]];labelBackgroundColor=none;rounded=0;html=1;whiteSpace=wrap;fontFamily=Times New Roman;" parent="8jNqRirwAT9x7CO7SYsk-44" vertex="1">
          <mxGeometry width="20" height="18" as="geometry" />
        </mxCell>
        <mxCell id="8jNqRirwAT9x7CO7SYsk-46" style="vsdxID=90;fillColor=#000000;gradientColor=none;shape=stencil(nZBLDoAgDERP0z3SIyjew0SURgSD+Lu9kMZoXLhwN9O+tukAlrNpJg1SzDH4QW/URgNYgZTkjA4UkwJUgGXng+6DX1zLfmoymdXo17xh5zmRJ6Q42BWCfc2oJfdAr+Yv+AP9Cb7OJ3H/2JG1HNGz/84klThPVCc=);points=[[1,0.5,0],[0.5,0,0],[0.5,0.5,0],[0.5,0.5,0]];labelBackgroundColor=none;rounded=0;html=1;whiteSpace=wrap;fontFamily=Times New Roman;" parent="8jNqRirwAT9x7CO7SYsk-44" vertex="1">
          <mxGeometry y="18" width="20" height="18" as="geometry" />
        </mxCell>
        <mxCell id="8jNqRirwAT9x7CO7SYsk-47" style="vsdxID=91;fillColor=#FFFFFF;gradientColor=none;shape=stencil(nZBLDoAgDERP0z3SIyjew0SURgSD+Lu9kMZoXLhwN9O+tukAlrNpJg1SzDH4QW/URgNYgZTkjA4UkwJUgGXng+6DX1zLfmoymdXo17xh5zmRJ6Q42BWCfc2oJfdAr+Yv+AP9Cb7OJ3H/2JG1HNGz/84klThPVCc=);points=[[1,0.5,0],[0.5,0,0],[0.5,0.5,0],[0.5,0.5,0]];labelBackgroundColor=none;rounded=0;html=1;whiteSpace=wrap;fontFamily=Times New Roman;" parent="8jNqRirwAT9x7CO7SYsk-44" vertex="1">
          <mxGeometry y="36" width="20" height="18" as="geometry" />
        </mxCell>
        <mxCell id="8jNqRirwAT9x7CO7SYsk-48" style="vsdxID=92;fillColor=#FFFFFF;gradientColor=none;shape=stencil(nZBLDoAgDERP0z3SIyjew0SURgSD+Lu9kMZoXLhwN9O+tukAlrNpJg1SzDH4QW/URgNYgZTkjA4UkwJUgGXng+6DX1zLfmoymdXo17xh5zmRJ6Q42BWCfc2oJfdAr+Yv+AP9Cb7OJ3H/2JG1HNGz/84klThPVCc=);points=[[1,0.5,0],[0.5,0,0],[0.5,0.5,0],[0.5,0.5,0]];labelBackgroundColor=none;rounded=0;html=1;whiteSpace=wrap;fontFamily=Times New Roman;" parent="8jNqRirwAT9x7CO7SYsk-44" vertex="1">
          <mxGeometry y="54" width="20" height="18" as="geometry" />
        </mxCell>
        <mxCell id="8jNqRirwAT9x7CO7SYsk-49" style="vsdxID=93;fillColor=#FFFFFF;gradientColor=none;shape=stencil(nZBLDoAgDERP0z3SIyjew0SURgSD+Lu9kMZoXLhwN9O+tukAlrNpJg1SzDH4QW/URgNYgZTkjA4UkwJUgGXng+6DX1zLfmoymdXo17xh5zmRJ6Q42BWCfc2oJfdAr+Yv+AP9Cb7OJ3H/2JG1HNGz/84klThPVCc=);points=[[1,0.5,0],[0.5,0,0],[0.5,0.5,0],[0.5,0.5,0]];labelBackgroundColor=none;rounded=0;html=1;whiteSpace=wrap;fontFamily=Times New Roman;" parent="8jNqRirwAT9x7CO7SYsk-44" vertex="1">
          <mxGeometry y="72" width="20" height="18" as="geometry" />
        </mxCell>
        <mxCell id="8jNqRirwAT9x7CO7SYsk-50" style="vsdxID=94;fillColor=#FFFFFF;gradientColor=none;shape=stencil(nZBLDoAgDERP0z3SIyjew0SURgSD+Lu9kMZoXLhwN9O+tukAlrNpJg1SzDH4QW/URgNYgZTkjA4UkwJUgGXng+6DX1zLfmoymdXo17xh5zmRJ6Q42BWCfc2oJfdAr+Yv+AP9Cb7OJ3H/2JG1HNGz/84klThPVCc=);points=[[1,0.5,0],[0.5,0,0],[0.5,0.5,0],[0.5,0.5,0]];labelBackgroundColor=none;rounded=0;html=1;whiteSpace=wrap;fontFamily=Times New Roman;" parent="8jNqRirwAT9x7CO7SYsk-44" vertex="1">
          <mxGeometry y="90" width="20" height="18" as="geometry" />
        </mxCell>
        <UserObject label="" tags="背景" id="8jNqRirwAT9x7CO7SYsk-51">
          <mxCell style="vsdxID=95;fillColor=none;gradientColor=none;points=[];labelBackgroundColor=none;rounded=0;strokeColor=none;html=1;whiteSpace=wrap;fontFamily=Times New Roman;" parent="1" vertex="1">
            <mxGeometry x="426" y="181" width="20" height="110" as="geometry" />
          </mxCell>
        </UserObject>
        <mxCell id="8jNqRirwAT9x7CO7SYsk-52" style="vsdxID=96;fillColor=#FFFFFF;gradientColor=none;shape=stencil(nZBLDoAgDERP0z3SIyjew0SURgSD+Lu9kMZoXLhwN9O+tukAlrNpJg1SzDH4QW/URgNYgZTkjA4UkwJUgGXng+6DX1zLfmoymdXo17xh5zmRJ6Q42BWCfc2oJfdAr+Yv+AP9Cb7OJ3H/2JG1HNGz/84klThPVCc=);points=[[1,0.5,0],[0.5,0,0],[0.5,0.5,0],[0.5,0.5,0]];labelBackgroundColor=none;rounded=0;html=1;whiteSpace=wrap;fontFamily=Times New Roman;" parent="8jNqRirwAT9x7CO7SYsk-51" vertex="1">
          <mxGeometry width="20" height="18" as="geometry" />
        </mxCell>
        <mxCell id="8jNqRirwAT9x7CO7SYsk-53" style="vsdxID=97;fillColor=#FFFFFF;gradientColor=none;shape=stencil(nZBLDoAgDERP0z3SIyjew0SURgSD+Lu9kMZoXLhwN9O+tukAlrNpJg1SzDH4QW/URgNYgZTkjA4UkwJUgGXng+6DX1zLfmoymdXo17xh5zmRJ6Q42BWCfc2oJfdAr+Yv+AP9Cb7OJ3H/2JG1HNGz/84klThPVCc=);points=[[1,0.5,0],[0.5,0,0],[0.5,0.5,0],[0.5,0.5,0]];labelBackgroundColor=none;rounded=0;html=1;whiteSpace=wrap;fontFamily=Times New Roman;" parent="8jNqRirwAT9x7CO7SYsk-51" vertex="1">
          <mxGeometry y="18" width="20" height="18" as="geometry" />
        </mxCell>
        <mxCell id="8jNqRirwAT9x7CO7SYsk-54" style="vsdxID=98;fillColor=#FFFFFF;gradientColor=none;shape=stencil(nZBLDoAgDERP0z3SIyjew0SURgSD+Lu9kMZoXLhwN9O+tukAlrNpJg1SzDH4QW/URgNYgZTkjA4UkwJUgGXng+6DX1zLfmoymdXo17xh5zmRJ6Q42BWCfc2oJfdAr+Yv+AP9Cb7OJ3H/2JG1HNGz/84klThPVCc=);points=[[1,0.5,0],[0.5,0,0],[0.5,0.5,0],[0.5,0.5,0]];labelBackgroundColor=none;rounded=0;html=1;whiteSpace=wrap;fontFamily=Times New Roman;" parent="8jNqRirwAT9x7CO7SYsk-51" vertex="1">
          <mxGeometry y="36" width="20" height="18" as="geometry" />
        </mxCell>
        <mxCell id="8jNqRirwAT9x7CO7SYsk-55" style="vsdxID=99;fillColor=#FFFFFF;gradientColor=none;shape=stencil(nZBLDoAgDERP0z3SIyjew0SURgSD+Lu9kMZoXLhwN9O+tukAlrNpJg1SzDH4QW/URgNYgZTkjA4UkwJUgGXng+6DX1zLfmoymdXo17xh5zmRJ6Q42BWCfc2oJfdAr+Yv+AP9Cb7OJ3H/2JG1HNGz/84klThPVCc=);points=[[1,0.5,0],[0.5,0,0],[0.5,0.5,0],[0.5,0.5,0]];labelBackgroundColor=none;rounded=0;html=1;whiteSpace=wrap;fontFamily=Times New Roman;" parent="8jNqRirwAT9x7CO7SYsk-51" vertex="1">
          <mxGeometry y="54" width="20" height="18" as="geometry" />
        </mxCell>
        <mxCell id="8jNqRirwAT9x7CO7SYsk-56" style="vsdxID=100;fillColor=#FFFFFF;gradientColor=none;shape=stencil(nZBLDoAgDERP0z3SIyjew0SURgSD+Lu9kMZoXLhwN9O+tukAlrNpJg1SzDH4QW/URgNYgZTkjA4UkwJUgGXng+6DX1zLfmoymdXo17xh5zmRJ6Q42BWCfc2oJfdAr+Yv+AP9Cb7OJ3H/2JG1HNGz/84klThPVCc=);points=[[1,0.5,0],[0.5,0,0],[0.5,0.5,0],[0.5,0.5,0]];labelBackgroundColor=none;rounded=0;html=1;whiteSpace=wrap;fontFamily=Times New Roman;" parent="8jNqRirwAT9x7CO7SYsk-51" vertex="1">
          <mxGeometry y="72" width="20" height="18" as="geometry" />
        </mxCell>
        <mxCell id="8jNqRirwAT9x7CO7SYsk-57" style="vsdxID=101;fillColor=#FFFFFF;gradientColor=none;shape=stencil(nZBLDoAgDERP0z3SIyjew0SURgSD+Lu9kMZoXLhwN9O+tukAlrNpJg1SzDH4QW/URgNYgZTkjA4UkwJUgGXng+6DX1zLfmoymdXo17xh5zmRJ6Q42BWCfc2oJfdAr+Yv+AP9Cb7OJ3H/2JG1HNGz/84klThPVCc=);points=[[1,0.5,0],[0.5,0,0],[0.5,0.5,0],[0.5,0.5,0]];labelBackgroundColor=none;rounded=0;html=1;whiteSpace=wrap;fontFamily=Times New Roman;" parent="8jNqRirwAT9x7CO7SYsk-51" vertex="1">
          <mxGeometry y="90" width="20" height="18" as="geometry" />
        </mxCell>
        <UserObject label="" tags="背景" id="8jNqRirwAT9x7CO7SYsk-58">
          <mxCell style="vsdxID=102;fillColor=none;gradientColor=none;points=[];labelBackgroundColor=none;rounded=0;strokeColor=none;html=1;whiteSpace=wrap;fontFamily=Times New Roman;" parent="1" vertex="1">
            <mxGeometry x="446" y="181" width="20" height="110" as="geometry" />
          </mxCell>
        </UserObject>
        <mxCell id="8jNqRirwAT9x7CO7SYsk-59" style="vsdxID=103;fillColor=#FFFFFF;gradientColor=none;shape=stencil(nZBLDoAgDERP0z3SIyjew0SURgSD+Lu9kMZoXLhwN9O+tukAlrNpJg1SzDH4QW/URgNYgZTkjA4UkwJUgGXng+6DX1zLfmoymdXo17xh5zmRJ6Q42BWCfc2oJfdAr+Yv+AP9Cb7OJ3H/2JG1HNGz/84klThPVCc=);points=[[1,0.5,0],[0.5,0,0],[0.5,0.5,0],[0.5,0.5,0]];labelBackgroundColor=none;rounded=0;html=1;whiteSpace=wrap;fontFamily=Times New Roman;" parent="8jNqRirwAT9x7CO7SYsk-58" vertex="1">
          <mxGeometry width="20" height="18" as="geometry" />
        </mxCell>
        <mxCell id="8jNqRirwAT9x7CO7SYsk-60" style="vsdxID=104;fillColor=#FFFFFF;gradientColor=none;shape=stencil(nZBLDoAgDERP0z3SIyjew0SURgSD+Lu9kMZoXLhwN9O+tukAlrNpJg1SzDH4QW/URgNYgZTkjA4UkwJUgGXng+6DX1zLfmoymdXo17xh5zmRJ6Q42BWCfc2oJfdAr+Yv+AP9Cb7OJ3H/2JG1HNGz/84klThPVCc=);points=[[1,0.5,0],[0.5,0,0],[0.5,0.5,0],[0.5,0.5,0]];labelBackgroundColor=none;rounded=0;html=1;whiteSpace=wrap;fontFamily=Times New Roman;" parent="8jNqRirwAT9x7CO7SYsk-58" vertex="1">
          <mxGeometry y="18" width="20" height="18" as="geometry" />
        </mxCell>
        <mxCell id="8jNqRirwAT9x7CO7SYsk-61" style="vsdxID=105;fillColor=#FFFFFF;gradientColor=none;shape=stencil(nZBLDoAgDERP0z3SIyjew0SURgSD+Lu9kMZoXLhwN9O+tukAlrNpJg1SzDH4QW/URgNYgZTkjA4UkwJUgGXng+6DX1zLfmoymdXo17xh5zmRJ6Q42BWCfc2oJfdAr+Yv+AP9Cb7OJ3H/2JG1HNGz/84klThPVCc=);points=[[1,0.5,0],[0.5,0,0],[0.5,0.5,0],[0.5,0.5,0]];labelBackgroundColor=none;rounded=0;html=1;whiteSpace=wrap;fontFamily=Times New Roman;" parent="8jNqRirwAT9x7CO7SYsk-58" vertex="1">
          <mxGeometry y="36" width="20" height="18" as="geometry" />
        </mxCell>
        <mxCell id="8jNqRirwAT9x7CO7SYsk-62" style="vsdxID=106;fillColor=#FFFFFF;gradientColor=none;shape=stencil(nZBLDoAgDERP0z3SIyjew0SURgSD+Lu9kMZoXLhwN9O+tukAlrNpJg1SzDH4QW/URgNYgZTkjA4UkwJUgGXng+6DX1zLfmoymdXo17xh5zmRJ6Q42BWCfc2oJfdAr+Yv+AP9Cb7OJ3H/2JG1HNGz/84klThPVCc=);points=[[1,0.5,0],[0.5,0,0],[0.5,0.5,0],[0.5,0.5,0]];labelBackgroundColor=none;rounded=0;html=1;whiteSpace=wrap;fontFamily=Times New Roman;" parent="8jNqRirwAT9x7CO7SYsk-58" vertex="1">
          <mxGeometry y="54" width="20" height="18" as="geometry" />
        </mxCell>
        <mxCell id="8jNqRirwAT9x7CO7SYsk-63" style="vsdxID=107;fillColor=#FFFFFF;gradientColor=none;shape=stencil(nZBLDoAgDERP0z3SIyjew0SURgSD+Lu9kMZoXLhwN9O+tukAlrNpJg1SzDH4QW/URgNYgZTkjA4UkwJUgGXng+6DX1zLfmoymdXo17xh5zmRJ6Q42BWCfc2oJfdAr+Yv+AP9Cb7OJ3H/2JG1HNGz/84klThPVCc=);points=[[1,0.5,0],[0.5,0,0],[0.5,0.5,0],[0.5,0.5,0]];labelBackgroundColor=none;rounded=0;html=1;whiteSpace=wrap;fontFamily=Times New Roman;" parent="8jNqRirwAT9x7CO7SYsk-58" vertex="1">
          <mxGeometry y="72" width="20" height="18" as="geometry" />
        </mxCell>
        <mxCell id="8jNqRirwAT9x7CO7SYsk-64" style="vsdxID=108;fillColor=#FFFFFF;gradientColor=none;shape=stencil(nZBLDoAgDERP0z3SIyjew0SURgSD+Lu9kMZoXLhwN9O+tukAlrNpJg1SzDH4QW/URgNYgZTkjA4UkwJUgGXng+6DX1zLfmoymdXo17xh5zmRJ6Q42BWCfc2oJfdAr+Yv+AP9Cb7OJ3H/2JG1HNGz/84klThPVCc=);points=[[1,0.5,0],[0.5,0,0],[0.5,0.5,0],[0.5,0.5,0]];labelBackgroundColor=none;rounded=0;html=1;whiteSpace=wrap;fontFamily=Times New Roman;" parent="8jNqRirwAT9x7CO7SYsk-58" vertex="1">
          <mxGeometry y="90" width="20" height="18" as="geometry" />
        </mxCell>
        <UserObject label="" tags="背景" id="8jNqRirwAT9x7CO7SYsk-65">
          <mxCell style="vsdxID=109;fillColor=none;gradientColor=none;points=[];labelBackgroundColor=none;rounded=0;strokeColor=none;html=1;whiteSpace=wrap;fontFamily=Times New Roman;" parent="1" vertex="1">
            <mxGeometry x="466" y="181" width="20" height="110" as="geometry" />
          </mxCell>
        </UserObject>
        <mxCell id="8jNqRirwAT9x7CO7SYsk-66" style="vsdxID=110;fillColor=#ffffff;gradientColor=none;shape=stencil(nZBLDoAgDERP0z3SIyjew0SURgSD+Lu9kMZoXLhwN9O+tukAlrNpJg1SzDH4QW/URgNYgZTkjA4UkwJUgGXng+6DX1zLfmoymdXo17xh5zmRJ6Q42BWCfc2oJfdAr+Yv+AP9Cb7OJ3H/2JG1HNGz/84klThPVCc=);points=[[1,0.5,0],[0.5,0,0],[0.5,0.5,0],[0.5,0.5,0]];labelBackgroundColor=none;rounded=0;html=1;whiteSpace=wrap;fontFamily=Times New Roman;" parent="8jNqRirwAT9x7CO7SYsk-65" vertex="1">
          <mxGeometry width="20" height="18" as="geometry" />
        </mxCell>
        <mxCell id="8jNqRirwAT9x7CO7SYsk-67" style="vsdxID=111;fillColor=#ffffff;gradientColor=none;shape=stencil(nZBLDoAgDERP0z3SIyjew0SURgSD+Lu9kMZoXLhwN9O+tukAlrNpJg1SzDH4QW/URgNYgZTkjA4UkwJUgGXng+6DX1zLfmoymdXo17xh5zmRJ6Q42BWCfc2oJfdAr+Yv+AP9Cb7OJ3H/2JG1HNGz/84klThPVCc=);points=[[1,0.5,0],[0.5,0,0],[0.5,0.5,0],[0.5,0.5,0]];labelBackgroundColor=none;rounded=0;html=1;whiteSpace=wrap;fontFamily=Times New Roman;" parent="8jNqRirwAT9x7CO7SYsk-65" vertex="1">
          <mxGeometry y="18" width="20" height="18" as="geometry" />
        </mxCell>
        <mxCell id="8jNqRirwAT9x7CO7SYsk-68" style="vsdxID=112;fillColor=#ffffff;gradientColor=none;shape=stencil(nZBLDoAgDERP0z3SIyjew0SURgSD+Lu9kMZoXLhwN9O+tukAlrNpJg1SzDH4QW/URgNYgZTkjA4UkwJUgGXng+6DX1zLfmoymdXo17xh5zmRJ6Q42BWCfc2oJfdAr+Yv+AP9Cb7OJ3H/2JG1HNGz/84klThPVCc=);points=[[1,0.5,0],[0.5,0,0],[0.5,0.5,0],[0.5,0.5,0]];labelBackgroundColor=none;rounded=0;html=1;whiteSpace=wrap;fontFamily=Times New Roman;" parent="8jNqRirwAT9x7CO7SYsk-65" vertex="1">
          <mxGeometry y="36" width="20" height="18" as="geometry" />
        </mxCell>
        <mxCell id="8jNqRirwAT9x7CO7SYsk-69" style="vsdxID=113;fillColor=#ffffff;gradientColor=none;shape=stencil(nZBLDoAgDERP0z3SIyjew0SURgSD+Lu9kMZoXLhwN9O+tukAlrNpJg1SzDH4QW/URgNYgZTkjA4UkwJUgGXng+6DX1zLfmoymdXo17xh5zmRJ6Q42BWCfc2oJfdAr+Yv+AP9Cb7OJ3H/2JG1HNGz/84klThPVCc=);points=[[1,0.5,0],[0.5,0,0],[0.5,0.5,0],[0.5,0.5,0]];labelBackgroundColor=none;rounded=0;html=1;whiteSpace=wrap;fontFamily=Times New Roman;" parent="8jNqRirwAT9x7CO7SYsk-65" vertex="1">
          <mxGeometry y="54" width="20" height="18" as="geometry" />
        </mxCell>
        <mxCell id="8jNqRirwAT9x7CO7SYsk-70" style="vsdxID=114;fillColor=#ffffff;gradientColor=none;shape=stencil(nZBLDoAgDERP0z3SIyjew0SURgSD+Lu9kMZoXLhwN9O+tukAlrNpJg1SzDH4QW/URgNYgZTkjA4UkwJUgGXng+6DX1zLfmoymdXo17xh5zmRJ6Q42BWCfc2oJfdAr+Yv+AP9Cb7OJ3H/2JG1HNGz/84klThPVCc=);points=[[1,0.5,0],[0.5,0,0],[0.5,0.5,0],[0.5,0.5,0]];labelBackgroundColor=none;rounded=0;html=1;whiteSpace=wrap;fontFamily=Times New Roman;" parent="8jNqRirwAT9x7CO7SYsk-65" vertex="1">
          <mxGeometry y="72" width="20" height="18" as="geometry" />
        </mxCell>
        <mxCell id="8jNqRirwAT9x7CO7SYsk-71" style="vsdxID=115;fillColor=#ffffff;gradientColor=none;shape=stencil(nZBLDoAgDERP0z3SIyjew0SURgSD+Lu9kMZoXLhwN9O+tukAlrNpJg1SzDH4QW/URgNYgZTkjA4UkwJUgGXng+6DX1zLfmoymdXo17xh5zmRJ6Q42BWCfc2oJfdAr+Yv+AP9Cb7OJ3H/2JG1HNGz/84klThPVCc=);points=[[1,0.5,0],[0.5,0,0],[0.5,0.5,0],[0.5,0.5,0]];labelBackgroundColor=none;rounded=0;html=1;whiteSpace=wrap;fontFamily=Times New Roman;" parent="8jNqRirwAT9x7CO7SYsk-65" vertex="1">
          <mxGeometry y="90" width="20" height="18" as="geometry" />
        </mxCell>
        <UserObject label="" tags="背景" id="8jNqRirwAT9x7CO7SYsk-72">
          <mxCell style="vsdxID=116;fillColor=none;gradientColor=none;points=[];labelBackgroundColor=none;rounded=0;strokeColor=none;html=1;whiteSpace=wrap;fontFamily=Times New Roman;" parent="1" vertex="1">
            <mxGeometry x="486" y="181" width="20" height="110" as="geometry" />
          </mxCell>
        </UserObject>
        <mxCell id="8jNqRirwAT9x7CO7SYsk-73" style="vsdxID=117;fillColor=#FFFFFF;gradientColor=none;shape=stencil(nZBLDoAgDERP0z3SIyjew0SURgSD+Lu9kMZoXLhwN9O+tukAlrNpJg1SzDH4QW/URgNYgZTkjA4UkwJUgGXng+6DX1zLfmoymdXo17xh5zmRJ6Q42BWCfc2oJfdAr+Yv+AP9Cb7OJ3H/2JG1HNGz/84klThPVCc=);points=[[1,0.5,0],[0.5,0,0],[0.5,0.5,0],[0.5,0.5,0]];labelBackgroundColor=none;rounded=0;html=1;whiteSpace=wrap;fontFamily=Times New Roman;" parent="8jNqRirwAT9x7CO7SYsk-72" vertex="1">
          <mxGeometry width="20" height="18" as="geometry" />
        </mxCell>
        <mxCell id="8jNqRirwAT9x7CO7SYsk-74" style="vsdxID=118;fillColor=#FFFFFF;gradientColor=none;shape=stencil(nZBLDoAgDERP0z3SIyjew0SURgSD+Lu9kMZoXLhwN9O+tukAlrNpJg1SzDH4QW/URgNYgZTkjA4UkwJUgGXng+6DX1zLfmoymdXo17xh5zmRJ6Q42BWCfc2oJfdAr+Yv+AP9Cb7OJ3H/2JG1HNGz/84klThPVCc=);points=[[1,0.5,0],[0.5,0,0],[0.5,0.5,0],[0.5,0.5,0]];labelBackgroundColor=none;rounded=0;html=1;whiteSpace=wrap;fontFamily=Times New Roman;" parent="8jNqRirwAT9x7CO7SYsk-72" vertex="1">
          <mxGeometry y="18" width="20" height="18" as="geometry" />
        </mxCell>
        <mxCell id="8jNqRirwAT9x7CO7SYsk-75" style="vsdxID=119;fillColor=#FFFFFF;gradientColor=none;shape=stencil(nZBLDoAgDERP0z3SIyjew0SURgSD+Lu9kMZoXLhwN9O+tukAlrNpJg1SzDH4QW/URgNYgZTkjA4UkwJUgGXng+6DX1zLfmoymdXo17xh5zmRJ6Q42BWCfc2oJfdAr+Yv+AP9Cb7OJ3H/2JG1HNGz/84klThPVCc=);points=[[1,0.5,0],[0.5,0,0],[0.5,0.5,0],[0.5,0.5,0]];labelBackgroundColor=none;rounded=0;html=1;whiteSpace=wrap;fontFamily=Times New Roman;" parent="8jNqRirwAT9x7CO7SYsk-72" vertex="1">
          <mxGeometry y="36" width="20" height="18" as="geometry" />
        </mxCell>
        <mxCell id="8jNqRirwAT9x7CO7SYsk-76" style="vsdxID=120;fillColor=#FFFFFF;gradientColor=none;shape=stencil(nZBLDoAgDERP0z3SIyjew0SURgSD+Lu9kMZoXLhwN9O+tukAlrNpJg1SzDH4QW/URgNYgZTkjA4UkwJUgGXng+6DX1zLfmoymdXo17xh5zmRJ6Q42BWCfc2oJfdAr+Yv+AP9Cb7OJ3H/2JG1HNGz/84klThPVCc=);points=[[1,0.5,0],[0.5,0,0],[0.5,0.5,0],[0.5,0.5,0]];labelBackgroundColor=none;rounded=0;html=1;whiteSpace=wrap;fontFamily=Times New Roman;" parent="8jNqRirwAT9x7CO7SYsk-72" vertex="1">
          <mxGeometry y="54" width="20" height="18" as="geometry" />
        </mxCell>
        <mxCell id="8jNqRirwAT9x7CO7SYsk-77" style="vsdxID=121;fillColor=#FFFFFF;gradientColor=none;shape=stencil(nZBLDoAgDERP0z3SIyjew0SURgSD+Lu9kMZoXLhwN9O+tukAlrNpJg1SzDH4QW/URgNYgZTkjA4UkwJUgGXng+6DX1zLfmoymdXo17xh5zmRJ6Q42BWCfc2oJfdAr+Yv+AP9Cb7OJ3H/2JG1HNGz/84klThPVCc=);points=[[1,0.5,0],[0.5,0,0],[0.5,0.5,0],[0.5,0.5,0]];labelBackgroundColor=none;rounded=0;html=1;whiteSpace=wrap;fontFamily=Times New Roman;" parent="8jNqRirwAT9x7CO7SYsk-72" vertex="1">
          <mxGeometry y="72" width="20" height="18" as="geometry" />
        </mxCell>
        <mxCell id="8jNqRirwAT9x7CO7SYsk-78" style="vsdxID=122;fillColor=#FFFFFF;gradientColor=none;shape=stencil(nZBLDoAgDERP0z3SIyjew0SURgSD+Lu9kMZoXLhwN9O+tukAlrNpJg1SzDH4QW/URgNYgZTkjA4UkwJUgGXng+6DX1zLfmoymdXo17xh5zmRJ6Q42BWCfc2oJfdAr+Yv+AP9Cb7OJ3H/2JG1HNGz/84klThPVCc=);points=[[1,0.5,0],[0.5,0,0],[0.5,0.5,0],[0.5,0.5,0]];labelBackgroundColor=none;rounded=0;html=1;whiteSpace=wrap;fontFamily=Times New Roman;" parent="8jNqRirwAT9x7CO7SYsk-72" vertex="1">
          <mxGeometry y="90" width="20" height="18" as="geometry" />
        </mxCell>
        <UserObject label="" tags="背景" id="8jNqRirwAT9x7CO7SYsk-79">
          <mxCell style="vsdxID=123;fillColor=none;gradientColor=none;points=[];labelBackgroundColor=none;rounded=0;strokeColor=none;html=1;whiteSpace=wrap;fontFamily=Times New Roman;" parent="1" vertex="1">
            <mxGeometry x="506" y="181" width="20" height="110" as="geometry" />
          </mxCell>
        </UserObject>
        <mxCell id="8jNqRirwAT9x7CO7SYsk-80" style="vsdxID=124;fillColor=#FFFFFF;gradientColor=none;shape=stencil(nZBLDoAgDERP0z3SIyjew0SURgSD+Lu9kMZoXLhwN9O+tukAlrNpJg1SzDH4QW/URgNYgZTkjA4UkwJUgGXng+6DX1zLfmoymdXo17xh5zmRJ6Q42BWCfc2oJfdAr+Yv+AP9Cb7OJ3H/2JG1HNGz/84klThPVCc=);points=[[1,0.5,0],[0.5,0,0],[0.5,0.5,0],[0.5,0.5,0]];labelBackgroundColor=none;rounded=0;html=1;whiteSpace=wrap;fontFamily=Times New Roman;" parent="8jNqRirwAT9x7CO7SYsk-79" vertex="1">
          <mxGeometry width="20" height="18" as="geometry" />
        </mxCell>
        <mxCell id="8jNqRirwAT9x7CO7SYsk-81" style="vsdxID=125;fillColor=#FFFFFF;gradientColor=none;shape=stencil(nZBLDoAgDERP0z3SIyjew0SURgSD+Lu9kMZoXLhwN9O+tukAlrNpJg1SzDH4QW/URgNYgZTkjA4UkwJUgGXng+6DX1zLfmoymdXo17xh5zmRJ6Q42BWCfc2oJfdAr+Yv+AP9Cb7OJ3H/2JG1HNGz/84klThPVCc=);points=[[1,0.5,0],[0.5,0,0],[0.5,0.5,0],[0.5,0.5,0]];labelBackgroundColor=none;rounded=0;html=1;whiteSpace=wrap;fontFamily=Times New Roman;" parent="8jNqRirwAT9x7CO7SYsk-79" vertex="1">
          <mxGeometry y="18" width="20" height="18" as="geometry" />
        </mxCell>
        <mxCell id="8jNqRirwAT9x7CO7SYsk-82" style="vsdxID=126;fillColor=#FFFFFF;gradientColor=none;shape=stencil(nZBLDoAgDERP0z3SIyjew0SURgSD+Lu9kMZoXLhwN9O+tukAlrNpJg1SzDH4QW/URgNYgZTkjA4UkwJUgGXng+6DX1zLfmoymdXo17xh5zmRJ6Q42BWCfc2oJfdAr+Yv+AP9Cb7OJ3H/2JG1HNGz/84klThPVCc=);points=[[1,0.5,0],[0.5,0,0],[0.5,0.5,0],[0.5,0.5,0]];labelBackgroundColor=none;rounded=0;html=1;whiteSpace=wrap;fontFamily=Times New Roman;" parent="8jNqRirwAT9x7CO7SYsk-79" vertex="1">
          <mxGeometry y="36" width="20" height="18" as="geometry" />
        </mxCell>
        <mxCell id="8jNqRirwAT9x7CO7SYsk-83" style="vsdxID=127;fillColor=#FFFFFF;gradientColor=none;shape=stencil(nZBLDoAgDERP0z3SIyjew0SURgSD+Lu9kMZoXLhwN9O+tukAlrNpJg1SzDH4QW/URgNYgZTkjA4UkwJUgGXng+6DX1zLfmoymdXo17xh5zmRJ6Q42BWCfc2oJfdAr+Yv+AP9Cb7OJ3H/2JG1HNGz/84klThPVCc=);points=[[1,0.5,0],[0.5,0,0],[0.5,0.5,0],[0.5,0.5,0]];labelBackgroundColor=none;rounded=0;html=1;whiteSpace=wrap;fontFamily=Times New Roman;" parent="8jNqRirwAT9x7CO7SYsk-79" vertex="1">
          <mxGeometry y="54" width="20" height="18" as="geometry" />
        </mxCell>
        <mxCell id="8jNqRirwAT9x7CO7SYsk-84" style="vsdxID=128;fillColor=#FFFFFF;gradientColor=none;shape=stencil(nZBLDoAgDERP0z3SIyjew0SURgSD+Lu9kMZoXLhwN9O+tukAlrNpJg1SzDH4QW/URgNYgZTkjA4UkwJUgGXng+6DX1zLfmoymdXo17xh5zmRJ6Q42BWCfc2oJfdAr+Yv+AP9Cb7OJ3H/2JG1HNGz/84klThPVCc=);points=[[1,0.5,0],[0.5,0,0],[0.5,0.5,0],[0.5,0.5,0]];labelBackgroundColor=none;rounded=0;html=1;whiteSpace=wrap;fontFamily=Times New Roman;" parent="8jNqRirwAT9x7CO7SYsk-79" vertex="1">
          <mxGeometry y="72" width="20" height="18" as="geometry" />
        </mxCell>
        <mxCell id="8jNqRirwAT9x7CO7SYsk-85" style="vsdxID=129;fillColor=#FFFFFF;gradientColor=none;shape=stencil(nZBLDoAgDERP0z3SIyjew0SURgSD+Lu9kMZoXLhwN9O+tukAlrNpJg1SzDH4QW/URgNYgZTkjA4UkwJUgGXng+6DX1zLfmoymdXo17xh5zmRJ6Q42BWCfc2oJfdAr+Yv+AP9Cb7OJ3H/2JG1HNGz/84klThPVCc=);points=[[1,0.5,0],[0.5,0,0],[0.5,0.5,0],[0.5,0.5,0]];labelBackgroundColor=none;rounded=0;html=1;whiteSpace=wrap;fontFamily=Times New Roman;" parent="8jNqRirwAT9x7CO7SYsk-79" vertex="1">
          <mxGeometry y="90" width="20" height="18" as="geometry" />
        </mxCell>
        <UserObject label="&lt;div style=&quot;font-size: 1px&quot;&gt;&lt;font style=&quot;font-size: 12.7px; color: rgb(0, 0, 0); direction: ltr; letter-spacing: 0px; line-height: 120%; opacity: 1;&quot;&gt;FFT&lt;br&gt;&lt;/font&gt;&lt;/div&gt;" tags="背景" id="8jNqRirwAT9x7CO7SYsk-86">
          <mxCell style="verticalAlign=middle;align=center;overflow=width;vsdxID=133;fillColor=#FFFFFF;gradientColor=none;shape=stencil(nZBLDoAgDERP0z3SIyjew0SURgSD+Lu9kMZoXLhwN9O+tukAlrNpJg1SzDH4QW/URgNYgZTkjA4UkwJUgGXng+6DX1zLfmoymdXo17xh5zmRJ6Q42BWCfc2oJfdAr+Yv+AP9Cb7OJ3H/2JG1HNGz/84klThPVCc=);points=[[1,0.5,0],[0.5,0,0],[0.5,0.5,0],[0.5,0.5,0]];labelBackgroundColor=none;rounded=0;html=1;whiteSpace=wrap;fontFamily=Times New Roman;" parent="1" vertex="1">
            <mxGeometry x="335" y="182" width="32" height="18" as="geometry" />
          </mxCell>
        </UserObject>
        <UserObject label="" tags="连接线" id="8jNqRirwAT9x7CO7SYsk-87">
          <mxCell style="vsdxID=137;edgeStyle=none;startArrow=none;endArrow=classic;startSize=9;endSize=9;spacingTop=0;spacingBottom=0;spacingLeft=0;spacingRight=0;verticalAlign=middle;html=1;labelBackgroundColor=#ffffff;rounded=0;fontFamily=Times New Roman;" parent="1" edge="1">
            <mxGeometry relative="1" as="geometry">
              <mxPoint as="offset" />
              <Array as="points">
                <mxPoint x="367" y="190.97" />
              </Array>
              <mxPoint x="367" y="191" as="sourcePoint" />
              <mxPoint x="386" y="191" as="targetPoint" />
            </mxGeometry>
          </mxCell>
        </UserObject>
        <UserObject label="&lt;div style=&quot;font-size: 1px&quot;&gt;&lt;font style=&quot;font-size: 12.7px; color: rgb(0, 0, 0); direction: ltr; letter-spacing: 0px; line-height: 120%; opacity: 1;&quot;&gt;FFT&lt;br&gt;&lt;/font&gt;&lt;/div&gt;" tags="背景" id="8jNqRirwAT9x7CO7SYsk-88">
          <mxCell style="verticalAlign=middle;align=center;overflow=width;vsdxID=138;fillColor=#FFFFFF;gradientColor=none;shape=stencil(nZBLDoAgDERP0z3SIyjew0SURgSD+Lu9kMZoXLhwN9O+tukAlrNpJg1SzDH4QW/URgNYgZTkjA4UkwJUgGXng+6DX1zLfmoymdXo17xh5zmRJ6Q42BWCfc2oJfdAr+Yv+AP9Cb7OJ3H/2JG1HNGz/84klThPVCc=);points=[[1,0.5,0],[0.5,0,0],[0.5,0.5,0],[0.5,0.5,0]];labelBackgroundColor=none;rounded=0;html=1;whiteSpace=wrap;fontFamily=Times New Roman;" parent="1" vertex="1">
            <mxGeometry x="335" y="200" width="32" height="18" as="geometry" />
          </mxCell>
        </UserObject>
        <UserObject label="" tags="连接线" id="8jNqRirwAT9x7CO7SYsk-89">
          <mxCell style="vsdxID=140;edgeStyle=none;startArrow=none;endArrow=classic;startSize=9;endSize=9;spacingTop=0;spacingBottom=0;spacingLeft=0;spacingRight=0;verticalAlign=middle;html=1;labelBackgroundColor=#ffffff;rounded=0;fontFamily=Times New Roman;" parent="1" edge="1">
            <mxGeometry relative="1" as="geometry">
              <mxPoint as="offset" />
              <Array as="points">
                <mxPoint x="367" y="209.97" />
              </Array>
              <mxPoint x="367" y="210" as="sourcePoint" />
              <mxPoint x="386" y="209" as="targetPoint" />
            </mxGeometry>
          </mxCell>
        </UserObject>
        <UserObject label="&lt;div style=&quot;font-size: 1px&quot;&gt;&lt;p style=&quot;text-align:center;margin-left:0;margin-right:0;margin-top:0px;margin-bottom:0px;text-indent:0;vertical-align:middle;direction:ltr;&quot;&gt;&lt;font style=&quot;font-size: 12.7px; color: rgb(0, 0, 0); direction: ltr; letter-spacing: 0px; line-height: 120%; opacity: 1;&quot;&gt;FFT&lt;/font&gt;&lt;font style=&quot;font-size: 14.11px; color: rgb(0, 0, 0); direction: ltr; letter-spacing: 0px; line-height: 120%; opacity: 1;&quot;&gt;&lt;br&gt;&lt;/font&gt;&lt;/p&gt;&lt;/div&gt;" tags="背景" id="8jNqRirwAT9x7CO7SYsk-90">
          <mxCell style="verticalAlign=middle;align=center;overflow=width;vsdxID=147;fillColor=#FFFFFF;gradientColor=none;shape=stencil(nZBLDoAgDERP0z3SIyjew0SURgSD+Lu9kMZoXLhwN9O+tukAlrNpJg1SzDH4QW/URgNYgZTkjA4UkwJUgGXng+6DX1zLfmoymdXo17xh5zmRJ6Q42BWCfc2oJfdAr+Yv+AP9Cb7OJ3H/2JG1HNGz/84klThPVCc=);points=[[1,0.5,0],[0.5,0,0],[0.5,0.5,0],[0.5,0.5,0]];labelBackgroundColor=none;rounded=0;html=1;whiteSpace=wrap;fontFamily=Times New Roman;" parent="1" vertex="1">
            <mxGeometry x="335" y="219" width="32" height="18" as="geometry" />
          </mxCell>
        </UserObject>
        <UserObject label="" tags="连接线" id="8jNqRirwAT9x7CO7SYsk-91">
          <mxCell style="vsdxID=149;edgeStyle=none;startArrow=none;endArrow=classic;startSize=9;endSize=9;spacingTop=0;spacingBottom=0;spacingLeft=0;spacingRight=0;verticalAlign=middle;html=1;labelBackgroundColor=#ffffff;rounded=0;fontFamily=Times New Roman;" parent="1" edge="1">
            <mxGeometry relative="1" as="geometry">
              <mxPoint as="offset" />
              <Array as="points">
                <mxPoint x="367" y="227.97" />
              </Array>
              <mxPoint x="367" y="228" as="sourcePoint" />
              <mxPoint x="386" y="228" as="targetPoint" />
            </mxGeometry>
          </mxCell>
        </UserObject>
        <UserObject label="&lt;div style=&quot;font-size: 1px&quot;&gt;&lt;p style=&quot;text-align:center;margin-left:0;margin-right:0;margin-top:0px;margin-bottom:0px;text-indent:0;vertical-align:middle;direction:ltr;&quot;&gt;&lt;font style=&quot;font-size: 12.7px; color: rgb(0, 0, 0); direction: ltr; letter-spacing: 0px; line-height: 120%; opacity: 1;&quot;&gt;FFT&lt;/font&gt;&lt;font style=&quot;font-size: 14.11px; color: rgb(0, 0, 0); direction: ltr; letter-spacing: 0px; line-height: 120%; opacity: 1;&quot;&gt;&lt;br&gt;&lt;/font&gt;&lt;/p&gt;&lt;/div&gt;" tags="背景" id="8jNqRirwAT9x7CO7SYsk-92">
          <mxCell style="verticalAlign=middle;align=center;overflow=width;vsdxID=156;fillColor=#FFFFFF;gradientColor=none;shape=stencil(nZBLDoAgDERP0z3SIyjew0SURgSD+Lu9kMZoXLhwN9O+tukAlrNpJg1SzDH4QW/URgNYgZTkjA4UkwJUgGXng+6DX1zLfmoymdXo17xh5zmRJ6Q42BWCfc2oJfdAr+Yv+AP9Cb7OJ3H/2JG1HNGz/84klThPVCc=);points=[[1,0.5,0],[0.5,0,0],[0.5,0.5,0],[0.5,0.5,0]];labelBackgroundColor=none;rounded=0;html=1;whiteSpace=wrap;fontFamily=Times New Roman;" parent="1" vertex="1">
            <mxGeometry x="335" y="274" width="32" height="18" as="geometry" />
          </mxCell>
        </UserObject>
        <UserObject label="" tags="连接线" id="8jNqRirwAT9x7CO7SYsk-93">
          <mxCell style="vsdxID=158;edgeStyle=none;startArrow=none;endArrow=classic;startSize=9;endSize=9;spacingTop=0;spacingBottom=0;spacingLeft=0;spacingRight=0;verticalAlign=middle;html=1;labelBackgroundColor=#ffffff;rounded=0;fontFamily=Times New Roman;" parent="1" edge="1">
            <mxGeometry relative="1" as="geometry">
              <mxPoint as="offset" />
              <Array as="points">
                <mxPoint x="367" y="282.97" />
              </Array>
              <mxPoint x="367" y="283" as="sourcePoint" />
              <mxPoint x="386" y="283" as="targetPoint" />
            </mxGeometry>
          </mxCell>
        </UserObject>
        <UserObject label="&lt;div style=&quot;font-size: 1px&quot;&gt;&lt;font style=&quot;font-size: 16.93px; color: rgb(0, 0, 0); direction: ltr; letter-spacing: 0px; line-height: 120%; opacity: 1;&quot;&gt;...&lt;br&gt;&lt;/font&gt;&lt;/div&gt;" tags="背景" id="8jNqRirwAT9x7CO7SYsk-94">
          <mxCell style="verticalAlign=middle;align=center;overflow=width;vsdxID=159;fillColor=none;gradientColor=none;shape=stencil(nZBLDoAgDERP0z3SIyjew0SURgSD+Lu9kMZoXLhwN9O+tukAlrNpJg1SzDH4QW/URgNYgZTkjA4UkwJUgGXng+6DX1zLfmoymdXo17xh5zmRJ6Q42BWCfc2oJfdAr+Yv+AP9Cb7OJ3H/2JG1HNGz/84klThPVCc=);strokeColor=none;points=[];labelBackgroundColor=none;rounded=0;html=1;whiteSpace=wrap;fontFamily=Times New Roman;" parent="1" vertex="1">
            <mxGeometry x="176" y="50" width="140" height="18" as="geometry" />
          </mxCell>
        </UserObject>
        <UserObject label="&lt;div style=&quot;font-size: 1px&quot;&gt;&lt;font style=&quot;font-size: 16.93px; color: rgb(0, 0, 0); direction: ltr; letter-spacing: 0px; line-height: 120%; opacity: 1;&quot;&gt;...&lt;br&gt;&lt;/font&gt;&lt;/div&gt;" tags="背景" id="8jNqRirwAT9x7CO7SYsk-95">
          <mxCell style="verticalAlign=middle;align=center;overflow=width;vsdxID=160;fillColor=none;gradientColor=none;shape=stencil(nZBLDoAgDERP0z3SIyjew0SURgSD+Lu9kMZoXLhwN9O+tukAlrNpJg1SzDH4QW/URgNYgZTkjA4UkwJUgGXng+6DX1zLfmoymdXo17xh5zmRJ6Q42BWCfc2oJfdAr+Yv+AP9Cb7OJ3H/2JG1HNGz/84klThPVCc=);strokeColor=none;points=[];labelBackgroundColor=none;rounded=0;html=1;whiteSpace=wrap;fontFamily=Times New Roman;" parent="1" vertex="1">
            <mxGeometry x="167" y="221" width="140" height="18" as="geometry" />
          </mxCell>
        </UserObject>
        <UserObject label="&lt;div style=&quot;font-size: 1px&quot;&gt;&lt;font style=&quot;font-size: 16.93px; color: rgb(0, 0, 0); direction: ltr; letter-spacing: 0px; line-height: 120%; opacity: 1;&quot;&gt;︙ &lt;br&gt;&lt;/font&gt;&lt;/div&gt;" tags="背景" id="8jNqRirwAT9x7CO7SYsk-96">
          <mxCell style="verticalAlign=middle;align=center;overflow=width;vsdxID=161;fillColor=none;gradientColor=none;shape=stencil(nZBLDoAgDERP0z3SIyjew0SURgSD+Lu9kMZoXLhwN9O+tukAlrNpJg1SzDH4QW/URgNYgZTkjA4UkwJUgGXng+6DX1zLfmoymdXo17xh5zmRJ6Q42BWCfc2oJfdAr+Yv+AP9Cb7OJ3H/2JG1HNGz/84klThPVCc=);strokeColor=none;points=[];labelBackgroundColor=none;rounded=0;html=1;whiteSpace=wrap;fontFamily=Times New Roman;" parent="1" vertex="1">
            <mxGeometry x="56" y="241" width="32" height="28" as="geometry" />
          </mxCell>
        </UserObject>
        <UserObject label="&lt;div style=&quot;font-size: 1px&quot;&gt;&lt;font style=&quot;font-size: 16.93px; color: rgb(0, 0, 0); direction: ltr; letter-spacing: 0px; line-height: 120%; opacity: 1;&quot;&gt;︙ &lt;br&gt;&lt;/font&gt;&lt;/div&gt;" tags="背景" id="8jNqRirwAT9x7CO7SYsk-97">
          <mxCell style="verticalAlign=middle;align=center;overflow=width;vsdxID=163;fillColor=none;gradientColor=none;shape=stencil(nZBLDoAgDERP0z3SIyjew0SURgSD+Lu9kMZoXLhwN9O+tukAlrNpJg1SzDH4QW/URgNYgZTkjA4UkwJUgGXng+6DX1zLfmoymdXo17xh5zmRJ6Q42BWCfc2oJfdAr+Yv+AP9Cb7OJ3H/2JG1HNGz/84klThPVCc=);strokeColor=none;points=[];labelBackgroundColor=none;rounded=0;html=1;whiteSpace=wrap;fontFamily=Times New Roman;" parent="1" vertex="1">
            <mxGeometry x="281" y="241" width="37" height="28" as="geometry" />
          </mxCell>
        </UserObject>
        <UserObject label="&lt;div style=&quot;font-size: 1px&quot;&gt;&lt;font style=&quot;font-size: 16.93px; color: rgb(0, 0, 0); direction: ltr; letter-spacing: 0px; line-height: 120%; opacity: 1;&quot;&gt;︙ &lt;br&gt;&lt;/font&gt;&lt;/div&gt;" tags="背景" id="8jNqRirwAT9x7CO7SYsk-98">
          <mxCell style="verticalAlign=middle;align=center;overflow=width;vsdxID=164;fillColor=none;gradientColor=none;shape=stencil(nZBLDoAgDERP0z3SIyjew0SURgSD+Lu9kMZoXLhwN9O+tukAlrNpJg1SzDH4QW/URgNYgZTkjA4UkwJUgGXng+6DX1zLfmoymdXo17xh5zmRJ6Q42BWCfc2oJfdAr+Yv+AP9Cb7OJ3H/2JG1HNGz/84klThPVCc=);strokeColor=none;points=[];labelBackgroundColor=none;rounded=0;html=1;whiteSpace=wrap;fontFamily=Times New Roman;" parent="1" vertex="1">
            <mxGeometry x="168" y="240" width="32" height="28" as="geometry" />
          </mxCell>
        </UserObject>
        <UserObject label="&lt;div style=&quot;font-size: 1px&quot;&gt;&lt;font style=&quot;font-size: 16.93px; color: rgb(0, 0, 0); direction: ltr; letter-spacing: 0px; line-height: 120%; opacity: 1;&quot;&gt;︙ &lt;br&gt;&lt;/font&gt;&lt;/div&gt;" tags="背景" id="8jNqRirwAT9x7CO7SYsk-99">
          <mxCell style="verticalAlign=middle;align=center;overflow=width;vsdxID=165;fillColor=none;gradientColor=none;shape=stencil(nZBLDoAgDERP0z3SIyjew0SURgSD+Lu9kMZoXLhwN9O+tukAlrNpJg1SzDH4QW/URgNYgZTkjA4UkwJUgGXng+6DX1zLfmoymdXo17xh5zmRJ6Q42BWCfc2oJfdAr+Yv+AP9Cb7OJ3H/2JG1HNGz/84klThPVCc=);strokeColor=none;points=[];labelBackgroundColor=none;rounded=0;html=1;whiteSpace=wrap;fontFamily=Times New Roman;" parent="1" vertex="1">
            <mxGeometry x="326" y="241" width="37" height="28" as="geometry" />
          </mxCell>
        </UserObject>
        <UserObject label="&lt;div style=&quot;font-size: 1px&quot;&gt;&lt;font style=&quot;font-size: 16.93px; color: rgb(0, 0, 0); direction: ltr; letter-spacing: 0px; line-height: 120%; opacity: 1;&quot;&gt;f&lt;br&gt;&lt;/font&gt;&lt;/div&gt;" tags="背景" id="8jNqRirwAT9x7CO7SYsk-100">
          <mxCell style="verticalAlign=middle;align=center;overflow=width;vsdxID=168;fillColor=none;gradientColor=none;shape=stencil(nZBLDoAgDERP0z3SIyjew0SURgSD+Lu9kMZoXLhwN9O+tukAlrNpJg1SzDH4QW/URgNYgZTkjA4UkwJUgGXng+6DX1zLfmoymdXo17xh5zmRJ6Q42BWCfc2oJfdAr+Yv+AP9Cb7OJ3H/2JG1HNGz/84klThPVCc=);strokeColor=none;points=[];labelBackgroundColor=none;rounded=0;html=1;whiteSpace=wrap;fontFamily=Times New Roman;" parent="1" vertex="1">
            <mxGeometry y="12" width="20" height="28" as="geometry" />
          </mxCell>
        </UserObject>
        <UserObject label="&lt;div style=&quot;font-size: 1px&quot;&gt;&lt;font style=&quot;font-size: 16.93px; color: rgb(0, 0, 0); direction: ltr; letter-spacing: 0px; line-height: 120%; opacity: 1;&quot;&gt;t&lt;br&gt;&lt;/font&gt;&lt;/div&gt;" tags="背景" id="8jNqRirwAT9x7CO7SYsk-101">
          <mxCell style="verticalAlign=middle;align=center;overflow=width;vsdxID=171;fillColor=none;gradientColor=none;shape=stencil(nZBLDoAgDERP0z3SIyjew0SURgSD+Lu9kMZoXLhwN9O+tukAlrNpJg1SzDH4QW/URgNYgZTkjA4UkwJUgGXng+6DX1zLfmoymdXo17xh5zmRJ6Q42BWCfc2oJfdAr+Yv+AP9Cb7OJ3H/2JG1HNGz/84klThPVCc=);strokeColor=none;points=[];labelBackgroundColor=none;rounded=0;html=1;whiteSpace=wrap;fontFamily=Times New Roman;" parent="1" vertex="1">
            <mxGeometry x="344" y="104" width="26" height="28" as="geometry" />
          </mxCell>
        </UserObject>
        <UserObject label="" tags="背景" id="8jNqRirwAT9x7CO7SYsk-102">
          <mxCell style="vsdxID=173;edgeStyle=none;startArrow=none;endArrow=classic;startSize=5;endSize=5;spacingTop=0;spacingBottom=0;spacingLeft=0;spacingRight=0;verticalAlign=middle;html=1;labelBackgroundColor=#ffffff;rounded=0;fontFamily=Times New Roman;" parent="1" edge="1">
            <mxGeometry relative="1" as="geometry">
              <mxPoint as="offset" />
              <Array as="points" />
              <mxPoint x="388" y="300" as="sourcePoint" />
              <mxPoint x="442" y="300" as="targetPoint" />
            </mxGeometry>
          </mxCell>
        </UserObject>
        <UserObject label="" tags="背景" id="8jNqRirwAT9x7CO7SYsk-103">
          <mxCell style="vsdxID=174;edgeStyle=none;startArrow=none;endArrow=classic;startSize=5;endSize=5;spacingTop=0;spacingBottom=0;spacingLeft=0;spacingRight=0;verticalAlign=middle;html=1;labelBackgroundColor=#ffffff;rounded=0;fontFamily=Times New Roman;" parent="1" edge="1">
            <mxGeometry relative="1" as="geometry">
              <Array as="points" />
              <mxPoint x="538" y="180" as="sourcePoint" />
              <mxPoint x="538" y="218" as="targetPoint" />
            </mxGeometry>
          </mxCell>
        </UserObject>
        <UserObject label="&lt;div style=&quot;font-size: 1px&quot;&gt;&lt;font style=&quot;font-size: 12.7px; color: rgb(0, 0, 0); direction: ltr; letter-spacing: 0px; line-height: 120%; opacity: 1;&quot;&gt;&lt;font face=&quot;SimSun&quot;&gt;多普勒&lt;/font&gt;&lt;br&gt;&lt;/font&gt;&lt;/div&gt;" tags="背景" id="8jNqRirwAT9x7CO7SYsk-104">
          <mxCell style="verticalAlign=middle;align=center;overflow=width;vsdxID=175;fillColor=none;gradientColor=none;shape=stencil(nZBLDoAgDERP0z3SIyjew0SURgSD+Lu9kMZoXLhwN9O+tukAlrNpJg1SzDH4QW/URgNYgZTkjA4UkwJUgGXng+6DX1zLfmoymdXo17xh5zmRJ6Q42BWCfc2oJfdAr+Yv+AP9Cb7OJ3H/2JG1HNGz/84klThPVCc=);strokeColor=none;points=[];labelBackgroundColor=none;rounded=0;html=1;whiteSpace=wrap;fontFamily=Times New Roman;" parent="1" vertex="1">
            <mxGeometry x="393" y="300" width="46" height="28" as="geometry" />
          </mxCell>
        </UserObject>
        <UserObject label="&lt;div style=&quot;font-size: 1px&quot;&gt;&lt;font style=&quot;font-size: 12.7px; color: rgb(0, 0, 0); direction: ltr; letter-spacing: 0px; line-height: 120%; opacity: 1;&quot;&gt;&lt;font face=&quot;SimSun&quot;&gt;范围&lt;/font&gt;&lt;br&gt;&lt;/font&gt;&lt;/div&gt;" tags="背景" id="8jNqRirwAT9x7CO7SYsk-105">
          <mxCell style="verticalAlign=middle;align=center;overflow=width;vsdxID=178;fillColor=none;gradientColor=none;shape=stencil(nZBLDoAgDERP0z3SIyjew0SURgSD+Lu9kMZoXLhwN9O+tukAlrNpJg1SzDH4QW/URgNYgZTkjA4UkwJUgGXng+6DX1zLfmoymdXo17xh5zmRJ6Q42BWCfc2oJfdAr+Yv+AP9Cb7OJ3H/2JG1HNGz/84klThPVCc=);strokeColor=none;points=[];labelBackgroundColor=none;rounded=0;html=1;whiteSpace=wrap;fontFamily=Times New Roman;" parent="1" vertex="1">
            <mxGeometry x="542" y="176" width="20" height="49" as="geometry" />
          </mxCell>
        </UserObject>
        <UserObject label="" tags="连接线" id="8jNqRirwAT9x7CO7SYsk-106">
          <mxCell style="vsdxID=73;edgeStyle=none;startArrow=none;endArrow=none;startSize=9;endSize=9;spacingTop=0;spacingBottom=0;spacingLeft=0;spacingRight=0;verticalAlign=middle;html=1;labelBackgroundColor=#ffffff;rounded=0;exitX=0.5135135135135135;exitY=1.0625;exitDx=0;exitDy=0;exitPerimeter=0;entryX=0.5;entryY=0;entryDx=0;entryDy=0;entryPerimeter=0;fontFamily=Times New Roman;" parent="1" source="8jNqRirwAT9x7CO7SYsk-26" target="8jNqRirwAT9x7CO7SYsk-32" edge="1">
            <mxGeometry relative="1" as="geometry">
              <mxPoint x="10" as="offset" />
              <Array as="points" />
            </mxGeometry>
          </mxCell>
        </UserObject>
        <UserObject label="" tags="连接线" id="8jNqRirwAT9x7CO7SYsk-107">
          <mxCell style="vsdxID=66;edgeStyle=none;startArrow=none;endArrow=classic;startSize=9;endSize=9;spacingTop=0;spacingBottom=0;spacingLeft=0;spacingRight=0;verticalAlign=middle;html=1;labelBackgroundColor=#ffffff;rounded=0;exitX=0.4888888888888889;exitY=1;exitDx=0;exitDy=0;exitPerimeter=0;entryX=0.5135135135135135;entryY=0;entryDx=0;entryDy=0;entryPerimeter=0;fontFamily=Times New Roman;" parent="1" source="8jNqRirwAT9x7CO7SYsk-25" target="8jNqRirwAT9x7CO7SYsk-26" edge="1">
            <mxGeometry relative="1" as="geometry">
              <mxPoint x="10" y="-1" as="offset" />
              <Array as="points" />
            </mxGeometry>
          </mxCell>
        </UserObject>
        <UserObject label="" tags="连接线" id="8jNqRirwAT9x7CO7SYsk-108">
          <mxCell style="vsdxID=19;edgeStyle=none;startArrow=none;endArrow=classic;startSize=9;endSize=9;spacingTop=0;spacingBottom=0;spacingLeft=0;spacingRight=0;verticalAlign=middle;html=1;labelBackgroundColor=#ffffff;rounded=0;exitX=0.4888888888888889;exitY=1;exitDx=0;exitDy=0;exitPerimeter=0;entryX=0.5135135135135135;entryY=0;entryDx=0;entryDy=0;entryPerimeter=0;fontFamily=Times New Roman;" parent="1" source="8jNqRirwAT9x7CO7SYsk-1" target="8jNqRirwAT9x7CO7SYsk-2" edge="1">
            <mxGeometry relative="1" as="geometry">
              <mxPoint x="10" y="-1" as="offset" />
              <Array as="points" />
            </mxGeometry>
          </mxCell>
        </UserObject>
        <UserObject label="" tags="连接线" id="8jNqRirwAT9x7CO7SYsk-109">
          <mxCell style="vsdxID=43;edgeStyle=none;startArrow=none;endArrow=none;startSize=9;endSize=9;spacingTop=0;spacingBottom=0;spacingLeft=0;spacingRight=0;verticalAlign=middle;html=1;labelBackgroundColor=#ffffff;rounded=0;exitX=0.5135135135135135;exitY=1;exitDx=0;exitDy=0;exitPerimeter=0;entryX=0.5;entryY=0;entryDx=0;entryDy=0;entryPerimeter=0;fontFamily=Times New Roman;" parent="1" source="8jNqRirwAT9x7CO7SYsk-2" target="8jNqRirwAT9x7CO7SYsk-8" edge="1">
            <mxGeometry relative="1" as="geometry">
              <mxPoint x="10" as="offset" />
              <Array as="points" />
            </mxGeometry>
          </mxCell>
        </UserObject>
        <UserObject label="" tags="连接线" id="8jNqRirwAT9x7CO7SYsk-110">
          <mxCell style="vsdxID=51;edgeStyle=none;startArrow=none;endArrow=classic;startSize=9;endSize=9;spacingTop=0;spacingBottom=0;spacingLeft=0;spacingRight=0;verticalAlign=middle;html=1;labelBackgroundColor=#ffffff;rounded=0;exitX=0.4888888888888889;exitY=1;exitDx=0;exitDy=0;exitPerimeter=0;entryX=0.5135135135135135;entryY=0;entryDx=0;entryDy=0;entryPerimeter=0;fontFamily=Times New Roman;" parent="1" source="8jNqRirwAT9x7CO7SYsk-13" target="8jNqRirwAT9x7CO7SYsk-14" edge="1">
            <mxGeometry relative="1" as="geometry">
              <mxPoint x="10" y="-1" as="offset" />
              <Array as="points" />
            </mxGeometry>
          </mxCell>
        </UserObject>
        <UserObject label="" tags="连接线" id="8jNqRirwAT9x7CO7SYsk-111">
          <mxCell style="vsdxID=58;edgeStyle=none;startArrow=none;endArrow=none;startSize=9;endSize=9;spacingTop=0;spacingBottom=0;spacingLeft=0;spacingRight=0;verticalAlign=middle;html=1;labelBackgroundColor=#ffffff;rounded=0;exitX=0.5135135135135135;exitY=1.0625;exitDx=0;exitDy=0;exitPerimeter=0;entryX=0.5;entryY=0;entryDx=0;entryDy=0;entryPerimeter=0;fontFamily=Times New Roman;" parent="1" source="8jNqRirwAT9x7CO7SYsk-14" target="8jNqRirwAT9x7CO7SYsk-20" edge="1">
            <mxGeometry relative="1" as="geometry">
              <mxPoint x="10" as="offset" />
              <Array as="points" />
            </mxGeometry>
          </mxCell>
        </UserObject>
        <mxCell id="8jNqRirwAT9x7CO7SYsk-112" style="fontFamily=Times New Roman;" parent="1" vertex="1">
          <mxGeometry x="310" y="283" as="geometry" />
        </mxCell>
        <UserObject label="" tags="连接线" id="8jNqRirwAT9x7CO7SYsk-113">
          <mxCell style="vsdxID=157;edgeStyle=none;startArrow=none;endArrow=classic;startSize=9;endSize=9;spacingTop=0;spacingBottom=0;spacingLeft=0;spacingRight=0;verticalAlign=middle;html=1;labelBackgroundColor=#ffffff;rounded=0;entryX=0;entryY=0.5;entryDx=0;entryDy=0;entryPerimeter=0;fontFamily=Times New Roman;" parent="1" source="8jNqRirwAT9x7CO7SYsk-112" target="8jNqRirwAT9x7CO7SYsk-92" edge="1">
            <mxGeometry relative="1" as="geometry">
              <mxPoint as="offset" />
              <Array as="points" />
            </mxGeometry>
          </mxCell>
        </UserObject>
        <mxCell id="8jNqRirwAT9x7CO7SYsk-114" style="fontFamily=Times New Roman;" parent="1" vertex="1">
          <mxGeometry x="310" y="228" as="geometry" />
        </mxCell>
        <UserObject label="" tags="连接线" id="8jNqRirwAT9x7CO7SYsk-115">
          <mxCell style="vsdxID=148;edgeStyle=none;startArrow=none;endArrow=classic;startSize=9;endSize=9;spacingTop=0;spacingBottom=0;spacingLeft=0;spacingRight=0;verticalAlign=middle;html=1;labelBackgroundColor=#ffffff;rounded=0;entryX=0;entryY=0.5;entryDx=0;entryDy=0;entryPerimeter=0;fontFamily=Times New Roman;" parent="1" source="8jNqRirwAT9x7CO7SYsk-114" target="8jNqRirwAT9x7CO7SYsk-90" edge="1">
            <mxGeometry relative="1" as="geometry">
              <mxPoint as="offset" />
              <Array as="points" />
            </mxGeometry>
          </mxCell>
        </UserObject>
        <mxCell id="8jNqRirwAT9x7CO7SYsk-116" style="fontFamily=Times New Roman;" parent="1" vertex="1">
          <mxGeometry x="310" y="210" as="geometry" />
        </mxCell>
        <UserObject label="" tags="连接线" id="8jNqRirwAT9x7CO7SYsk-117">
          <mxCell style="vsdxID=139;edgeStyle=none;startArrow=none;endArrow=classic;startSize=9;endSize=9;spacingTop=0;spacingBottom=0;spacingLeft=0;spacingRight=0;verticalAlign=middle;html=1;labelBackgroundColor=#ffffff;rounded=0;entryX=0;entryY=0.5555555555555556;entryDx=0;entryDy=0;entryPerimeter=0;fontFamily=Times New Roman;" parent="1" source="8jNqRirwAT9x7CO7SYsk-116" target="8jNqRirwAT9x7CO7SYsk-88" edge="1">
            <mxGeometry relative="1" as="geometry">
              <mxPoint as="offset" />
              <Array as="points" />
            </mxGeometry>
          </mxCell>
        </UserObject>
        <UserObject label="" tags="连接线" id="8jNqRirwAT9x7CO7SYsk-118">
          <mxCell style="vsdxID=134;edgeStyle=none;startArrow=none;endArrow=classic;startSize=9;endSize=9;spacingTop=0;spacingBottom=0;spacingLeft=0;spacingRight=0;verticalAlign=middle;html=1;labelBackgroundColor=#ffffff;rounded=0;exitX=1;exitY=0.5;exitDx=0;exitDy=0;exitPerimeter=0;entryX=0;entryY=0.5;entryDx=0;entryDy=0;entryPerimeter=0;fontFamily=Times New Roman;" parent="1" source="8jNqRirwAT9x7CO7SYsk-32" target="8jNqRirwAT9x7CO7SYsk-86" edge="1">
            <mxGeometry relative="1" as="geometry">
              <mxPoint as="offset" />
              <Array as="points" />
            </mxGeometry>
          </mxCell>
        </UserObject>
        <UserObject label="" tags="背景" id="8jNqRirwAT9x7CO7SYsk-119">
          <mxCell style="vsdxID=1;edgeStyle=none;startArrow=block;endArrow=none;startSize=5;endSize=5;spacingTop=0;spacingBottom=0;spacingLeft=0;spacingRight=0;verticalAlign=middle;html=1;labelBackgroundColor=#ffffff;rounded=0;fontFamily=Times New Roman;" parent="1" edge="1">
            <mxGeometry relative="1" as="geometry">
              <Array as="points" />
              <mxPoint x="30" y="12" as="sourcePoint" />
              <mxPoint x="30" y="104" as="targetPoint" />
            </mxGeometry>
          </mxCell>
        </UserObject>
        <UserObject label="" tags="背景" id="8jNqRirwAT9x7CO7SYsk-120">
          <mxCell style="vsdxID=2;edgeStyle=none;startArrow=none;endArrow=classic;startSize=5;endSize=5;spacingTop=0;spacingBottom=0;spacingLeft=0;spacingRight=0;verticalAlign=middle;html=1;labelBackgroundColor=#ffffff;rounded=0;fontFamily=Times New Roman;" parent="1" edge="1">
            <mxGeometry relative="1" as="geometry">
              <mxPoint as="offset" />
              <Array as="points" />
              <mxPoint x="30" y="104" as="sourcePoint" />
              <mxPoint x="372" y="104" as="targetPoint" />
            </mxGeometry>
          </mxCell>
        </UserObject>
        <UserObject label="" tags="背景" id="8jNqRirwAT9x7CO7SYsk-121">
          <mxCell style="vsdxID=3;edgeStyle=none;startArrow=none;endArrow=classic;startSize=5;endSize=5;strokeColor=#4bacc6;spacingTop=0;spacingBottom=0;spacingLeft=0;spacingRight=0;verticalAlign=middle;html=1;labelBackgroundColor=#ffffff;rounded=0;fontFamily=Times New Roman;" parent="1" edge="1">
            <mxGeometry relative="1" as="geometry">
              <Array as="points" />
              <mxPoint x="30" y="104" as="sourcePoint" />
              <mxPoint x="102" y="20" as="targetPoint" />
            </mxGeometry>
          </mxCell>
        </UserObject>
        <UserObject label="" tags="背景" id="8jNqRirwAT9x7CO7SYsk-122">
          <mxCell style="vsdxID=6;edgeStyle=none;startArrow=none;endArrow=classic;startSize=5;endSize=5;strokeColor=#9dbb61;spacingTop=0;spacingBottom=0;spacingLeft=0;spacingRight=0;verticalAlign=middle;html=1;labelBackgroundColor=#ffffff;rounded=0;fontFamily=Times New Roman;" parent="1" edge="1">
            <mxGeometry relative="1" as="geometry">
              <Array as="points" />
              <mxPoint x="55" y="104" as="sourcePoint" />
              <mxPoint x="128" y="20" as="targetPoint" />
            </mxGeometry>
          </mxCell>
        </UserObject>
        <UserObject label="" tags="背景" id="8jNqRirwAT9x7CO7SYsk-123">
          <mxCell style="vsdxID=7;edgeStyle=none;startArrow=none;endArrow=classic;startSize=5;endSize=5;strokeColor=#4bacc6;spacingTop=0;spacingBottom=0;spacingLeft=0;spacingRight=0;verticalAlign=middle;html=1;labelBackgroundColor=#ffffff;rounded=0;fontFamily=Times New Roman;" parent="1" edge="1">
            <mxGeometry relative="1" as="geometry">
              <Array as="points" />
              <mxPoint x="139" y="104" as="sourcePoint" />
              <mxPoint x="212" y="20" as="targetPoint" />
            </mxGeometry>
          </mxCell>
        </UserObject>
        <UserObject label="" tags="背景" id="8jNqRirwAT9x7CO7SYsk-124">
          <mxCell style="vsdxID=8;edgeStyle=none;startArrow=none;endArrow=classic;startSize=5;endSize=5;strokeColor=#9dbb61;spacingTop=0;spacingBottom=0;spacingLeft=0;spacingRight=0;verticalAlign=middle;html=1;labelBackgroundColor=#ffffff;rounded=0;fontFamily=Times New Roman;" parent="1" edge="1">
            <mxGeometry relative="1" as="geometry">
              <Array as="points" />
              <mxPoint x="166" y="104" as="sourcePoint" />
              <mxPoint x="239" y="20" as="targetPoint" />
            </mxGeometry>
          </mxCell>
        </UserObject>
        <UserObject label="" tags="背景" id="8jNqRirwAT9x7CO7SYsk-125">
          <mxCell style="vsdxID=9;edgeStyle=none;startArrow=none;endArrow=classic;startSize=5;endSize=5;strokeColor=#4bacc6;spacingTop=0;spacingBottom=0;spacingLeft=0;spacingRight=0;verticalAlign=middle;html=1;labelBackgroundColor=#ffffff;rounded=0;fontFamily=Times New Roman;" parent="1" edge="1">
            <mxGeometry relative="1" as="geometry">
              <Array as="points" />
              <mxPoint x="255" y="104" as="sourcePoint" />
              <mxPoint x="327" y="20" as="targetPoint" />
            </mxGeometry>
          </mxCell>
        </UserObject>
        <UserObject label="" tags="背景" id="8jNqRirwAT9x7CO7SYsk-126">
          <mxCell style="vsdxID=10;edgeStyle=none;startArrow=none;endArrow=classic;startSize=5;endSize=5;strokeColor=#9dbb61;spacingTop=0;spacingBottom=0;spacingLeft=0;spacingRight=0;verticalAlign=middle;html=1;labelBackgroundColor=#ffffff;rounded=0;fontFamily=Times New Roman;" parent="1" edge="1">
            <mxGeometry relative="1" as="geometry">
              <Array as="points" />
              <mxPoint x="282" y="104" as="sourcePoint" />
              <mxPoint x="355" y="20" as="targetPoint" />
            </mxGeometry>
          </mxCell>
        </UserObject>
      </root>
    </mxGraphModel>
  </diagram>
</mxfile>
